<svg width="400" height="500" xmlns="http://www.w3.org/2000/svg" version="1.1">
    <g>
        <title>Layer 1</title>
        <path fill="#fff"
            d="m723.78218,576.99839q-6.18,-7.85 -7.67,-10.27q-16.17,-26.26 -10.32,-56.94q0.68,-3.59 1.34,-6.96a0.6,0.6 0 0 1 0.96,-0.35c23.27,18.65 51.71,34.34 50.72,69.56c-0.17,6.16 -0.67,11.52 -2.67,17.03a0.76,0.76 0 0 0 0.5,0.99l38.35,11.01a5.02,4.96 44.6 0 0 2.77,0l38.31,-10.97q0.88,-0.25 0.52,-1.08c-5.12,-12.2 -2.85,-33.14 3.39,-44.63c5.55,-10.23 15.35,-19.46 24.63,-26.39q10.22,-7.65 20.14,-15.56a0.44,0.43 62.9 0 1 0.69,0.23c5.36,19.62 3.86,40.61 -6.02,58.55q-4.66,8.46 -10.26,15.84q-0.56,0.74 0.3,0.37q19.59,-8.39 37.91,-19.32a0.45,0.44 60.3 0 0 0.16,-0.61c-8.13,-13.93 -12.23,-32.83 -7.09,-48.27c6.44,-19.39 19.24,-35.1 30.72,-51.56a0.61,0.61 0 0 1 1.01,0.02q22.82,36.32 8.27,77.15q-0.61,1.7 0.83,0.6q15.65,-12 30.01,-25.51q0.76,-0.71 0.05,-1.47c-9.33,-9.91 -15.97,-25.29 -15.97,-38.76c0.01,-20.97 12.11,-41.66 20.44,-59.75a0.44,0.43 36.9 0 1 0.72,-0.1c17.98,20.99 26.01,44.03 20.34,71.32q-0.52,2.49 1.1,0.53q12.41,-15.05 23.08,-31.4a0.19,0.19 0 0 0 -0.05,-0.26c-12.12,-8.47 -24.64,-23.81 -25.9,-38.99c-1.54,-18.6 2.95,-36.67 6.71,-54.67q0.13,-0.62 0.66,-0.27q33.12,22.33 35.36,62.71q0.04,0.77 0.47,0.13q1.47,-2.24 2.55,-4.63q6.76,-14.98 11.75,-30.65q0.16,-0.51 -0.33,-0.74c-2.27,-1.06 -4.89,-1.81 -6.92,-2.9q-9.49,-5.08 -13.73,-8.79c-20.51,-17.96 -20.64,-46.11 -23.45,-71.03a0.33,0.33 0 0 1 0.42,-0.35q36.78,10.75 51.78,45.82q1.14,2.67 1.66,-0.13c0.05,-0.27 -0.17,-1.63 -0.07,-2.33q2.8,-18.9 2.92,-37.52q0.01,-0.83 -0.83,-0.88q-16.14,-0.97 -30.15,-8.86c-17.86,-10.07 -28.08,-38.2 -35.89,-57.08a0.62,0.61 79.4 0 1 0.58,-0.85c11.42,0.26 23.66,2 33.86,6.49c11.32,4.98 21.25,13.11 29.17,22.5q0.65,0.77 0.48,-0.23q-2.77,-16.76 -6.97,-33.22q-0.17,-0.65 -0.8,-0.43c-6.8,2.37 -14.03,2.65 -21.39,2.2q-18.2,-1.11 -32.24,-14.2c-11.47,-10.69 -19.62,-21.08 -29.01,-32.41q-0.42,-0.5 0.21,-0.71c18.02,-5.77 38.81,-4.98 55.9,2.82q3.56,1.62 15.05,8.76q0.58,0.36 0.32,-0.27q-5.88,-14.43 -13.72,-27.91a0.95,0.95 0 0 0 -1.26,-0.36c-13.09,6.75 -29.91,10.26 -44.08,4.67c-15.77,-6.23 -29.55,-16.37 -43.21,-26.74a0.59,0.59 0 0 1 0.03,-0.96c20.58,-13.63 44.55,-15.72 67.66,-7.01a0.31,0.31 0 0 0 0.35,-0.49l-8.36,-10.17a1.74,1.73 -19.4 0 0 -1.31,-0.62c-12.05,-0.02 -22.27,-1.46 -32.58,-7.61c-18.18,-10.84 -27.91,-34.87 -36.85,-52.94a0.39,0.39 0 0 1 0.31,-0.56c25.57,-2.58 47.71,7.57 64.61,26.45q10.02,11.19 12.54,25.71q0.14,0.8 1.33,2.19q3.46,4.07 6.4,8.44a0.3,0.3 0 0 0 0.49,0.02q0.17,-0.21 0.08,-0.64q-5.31,-26.32 6.8,-49.54c2.03,-3.88 5.03,-8.24 7.57,-12.3a0.66,0.66 0 0 1 1.12,0.01c7.57,12.81 15.53,25.64 20.65,39.5c7.23,19.56 1.99,42.21 -12.89,56.72a0.64,0.63 -36.2 0 0 -0.12,0.74l11.71,23.09q0.22,0.42 0.26,-0.05q2.95,-35.1 30.51,-56.52a0.52,0.52 0 0 1 0.82,0.28c6.6,24.07 17.79,52.79 3.53,76.66c-4.82,8.05 -11.5,15.48 -19.61,20.43a0.77,0.76 68.4 0 0 -0.35,0.82l7.03,33.42a0.24,0.24 0 0 0 0.47,0.02c6.77,-22.62 23.9,-40.02 45.78,-48.82a0.55,0.54 -9.9 0 1 0.75,0.52c-0.5,14.98 0.14,29.97 -2.34,44.87c-3.63,21.79 -19.97,38.83 -41.06,44.5a1.15,1.14 83.1 0 0 -0.85,1.1q-0.16,19.4 -3.06,38.58q-0.25,1.65 0.74,0.3c8.95,-12.31 20.24,-20.79 34.51,-26.8c6.74,-2.84 15.27,-4.11 22.82,-5.25a0.67,0.67 0 0 1 0.73,0.88c-6.33,18.74 -10.93,38.41 -23.39,53.76c-9.89,12.17 -28.01,19.49 -43.51,18.41a1.38,1.37 -77.2 0 0 -1.39,0.88l-11.78,30.66a0.24,0.24 0 0 0 0.35,0.29c2.49,-1.58 5.17,-3.56 7.36,-4.73c17.68,-9.48 35.62,-10.69 55.29,-7.49a0.8,0.8 0 0 1 0.53,1.25q-7.96,11.44 -16.39,22.43c-11.34,14.77 -25.89,28.41 -45.49,28.95c-9.09,0.26 -15.04,0.26 -22.11,-2.14q-0.27,-0.09 -0.44,0.14l-20.78,28.24a0.24,0.24 0 0 0 0.26,0.38q1.42,-0.4 3.44,-1.22c16.64,-6.75 37.3,-6.28 54.23,0.08q5.05,1.89 9.73,3.77q1.36,0.54 0.26,1.5q-12.56,11 -25.64,21.76c-7.53,6.19 -18.25,11.94 -28.06,14.49c-14.46,3.75 -31.61,-0.53 -44.32,-7.9a0.55,0.55 0 0 0 -0.66,0.08q-13.33,12.78 -27.96,24.03q-1.55,1.19 0.36,0.78c9.56,-2.05 20.13,-3.17 29.77,-1.9c15.68,2.08 28.32,7.91 41.5,16.56a0.91,0.91 0 0 1 -0.07,1.56c-6.65,3.52 -13.25,8.06 -19.36,11.35c-12.91,6.97 -26.88,15.08 -42.63,16.29c-15.77,1.21 -37.4,-6.07 -47.39,-19.06a0.2,0.19 -32.6 0 0 -0.25,-0.05q-14.65,8.61 -29.97,15.98q-1.66,0.8 0.16,1.12c17.17,3.02 30.96,8.58 43.69,20.7q5.97,5.69 11.26,12.35a0.93,0.92 65.7 0 1 -0.56,1.49c-11.07,1.91 -20.69,4.8 -28.59,6.26c-8.3,1.54 -20.75,3.36 -31.07,1.26c-15.27,-3.11 -28.65,-12.69 -37.34,-25.6a1.16,1.15 -25.5 0 0 -1.31,-0.46l-20.06,6.23q-2.59,0.8 0.05,1.4c15.31,3.44 35.88,12.24 46.99,24.5a0.92,0.91 48.3 0 1 -0.07,1.3l-6.84,6.05a0.47,0.46 -41.8 0 1 -0.64,-0.03c-7.51,-8.13 -19.13,-14.24 -28.28,-17.38q-16.05,-5.52 -32.44,-9.92q-0.77,-0.21 -2.17,0.14c-20.87,5.33 -37.66,9.65 -53.74,20.69c-2.68,1.84 -4.95,4.22 -7.29,6.5a0.32,0.32 0 0 1 -0.43,0.01l-6.78,-6.03q-0.77,-0.69 -0.07,-1.44c11.47,-12.28 31.1,-20.83 46.68,-24.28q3.18,-0.7 0.07,-1.65l-20.25,-6.18q-0.41,-0.12 -0.65,0.23c-10,14.62 -25.52,25.17 -43.11,26.73q-6.27,0.56 -15.97,-0.7q-16.72,-2.19 -32.99,-6.77c-1.71,-0.48 -3.54,-0.69 -5.23,-0.84a0.84,0.84 0 0 1 -0.6,-1.34c13.59,-18.14 31.66,-30.05 54.28,-32.96q0.67,-0.08 1.14,-0.26a0.36,0.36 0 0 0 0.04,-0.66l-30.42,-16.31q-0.32,-0.17 -0.48,0.15q-0.89,1.73 -1.57,2.36c-10.48,9.83 -21.34,13.55 -34.95,16.11c-14.45,2.71 -32.7,-4.44 -44.44,-11.14q-4.48,-2.55 -9.01,-5.01c-6.32,-3.42 -12.51,-7.65 -19,-11.26a0.8,0.8 0 0 1 -0.08,-1.34c20.17,-14.77 46.75,-21.37 71.16,-14.59q2.24,0.62 0.46,-0.87c-9.42,-7.83 -18.95,-15.52 -27.88,-24.11a0.57,0.56 -38 0 0 -0.66,-0.08c-12.09,7.02 -26.7,10.48 -40.61,8.74c-11.76,-1.47 -24.33,-9.05 -33.48,-16.61q-12.17,-10.06 -24.27,-20.72a0.67,0.67 0 0 1 0.19,-1.13q5.15,-2.09 10.68,-4.03q28.91,-10.13 57.08,1.31q0.55,0.23 0.49,-0.36q-0.01,-0.12 -0.28,-0.46q-10.83,-13.45 -20.27,-27.72a0.84,0.84 0 0 0 -1.02,-0.32c-6.05,2.51 -12.24,2.42 -19.78,2.27c-19.82,-0.39 -34.02,-11.14 -45.73,-26.19q-9.63,-12.38 -18.51,-25.74a0.45,0.45 0 0 1 0.31,-0.7q4.7,-0.66 9.65,-1.22q26.21,-2.95 48.6,10.17c1.11,0.65 3.16,2.48 4.97,3.24q0.77,0.32 0.43,-0.44q-6.7,-14.94 -11.71,-30.52a1.25,1.25 0 0 0 -1.5,-0.83c-8.09,2.08 -20.02,-2.48 -28.05,-6.37c-9.67,-4.7 -15.39,-9.95 -21.18,-19.41c-8.7,-14.21 -12.87,-30.8 -17.84,-46.65a0.54,0.54 0 0 1 0.59,-0.7q6.35,0.95 12.68,2.29c17.75,3.78 34.25,15.04 44.53,29.89q0.62,0.9 0.73,-0.19q0.01,-0.14 -0.08,-0.75q-2.65,-19.13 -2.68,-38.44q0,-0.51 -0.5,-0.61c-15.73,-2.96 -34.11,-18.99 -38.86,-34.25c-5.58,-17.93 -4.86,-36.26 -4.82,-54.7q0,-1.3 1.2,-0.8q33.72,14 45.27,48.7q0.16,0.46 0.35,0.02q0.69,-1.59 0.82,-2.46q2.39,-15.41 6.52,-30.63a0.75,0.74 24.9 0 0 -0.3,-0.81q-17.51,-11.82 -25.03,-31.71q-2.9,-7.64 -2.05,-19.34c1.15,-15.94 6.4,-31.17 10.71,-46.54a0.73,0.73 0 0 1 1.17,-0.36c17.29,14.59 28.5,33.06 29.78,55.73q0.1,1.82 0.93,0.19l11.25,-21.95a1.05,1.05 0 0 0 -0.21,-1.23c-8,-7.63 -12.61,-18.06 -15.02,-28.68c-5.56,-24.5 11.62,-47.68 23.04,-67.65a0.52,0.51 -47.3 0 1 0.87,-0.04q3.35,4.91 6.37,10.24q13.82,24.41 8,52.04q-0.16,0.77 0.39,0.2q3.57,-3.67 6.59,-7.77q1.25,-1.69 1.71,-4.18q1.83,-9.69 7.14,-17.44c15.66,-22.84 41.8,-36.03 69.79,-33.24a0.47,0.46 -74 0 1 0.37,0.68c-14.84,29.34 -28.2,62.48 -68.61,60.35a2.78,2.78 0 0 0 -2.28,1l-8.04,9.71a0.4,0.4 0 0 0 0.46,0.63c23.23,-9 46.93,-5.87 67.24,6.93a0.91,0.91 0 0 1 0.01,1.54c-10.27,6.6 -18.58,13.5 -25.94,17.92q-13.21,7.96 -24.55,10.65q-4.31,1.02 -12.24,0.23q-13.25,-1.32 -24.92,-7.43a0.33,0.33 0 0 0 -0.44,0.12q-8.04,13.81 -14.12,28.59q-0.19,0.46 0.22,0.19c8.09,-5.33 16.73,-10.35 25.95,-12.76q22.41,-5.87 44.95,0.95a0.61,0.6 27.8 0 1 0.3,0.96c-14.26,17.62 -31.5,41.42 -54.91,45.77c-8.56,1.59 -19.86,1.39 -28.02,-1.65a0.18,0.18 0 0 0 -0.24,0.12q-4.17,16.43 -7.02,33.13q-0.2,1.21 0.59,0.27c10.07,-12.02 24.42,-22.15 40.01,-25.68c7.12,-1.61 15.22,-2.85 22.74,-2.7a0.68,0.68 0 0 1 0.62,0.94c-6.23,15 -12.4,30.17 -21.84,43.34c-10.37,14.44 -26.47,21.46 -44.34,22.33q-0.53,0.02 -0.54,0.56q-0.08,19.01 2.84,37.74c0.13,0.83 -0.01,2.49 0.23,3.58q0.21,0.93 0.61,0.06q1.7,-3.69 3.49,-7.23c10.19,-20.08 27.53,-33.27 48.96,-39.58a0.36,0.36 0 0 1 0.46,0.39c-2.11,18.91 -3.12,41.46 -12.95,58.28c-5.74,9.82 -13.47,15.81 -24,21.32c-2.09,1.09 -4.85,1.99 -7.26,3.09q-0.5,0.23 -0.31,0.74c4.3,11.99 8.31,23.9 14.21,35.12q0.72,1.36 0.8,-0.17c0.12,-2.01 -0.18,-4.12 0.07,-6.1c3,-24.54 15.27,-42.19 35.05,-56.49a0.49,0.49 0 0 1 0.76,0.3c3.87,19.02 10.2,42.02 5.11,61.18c-3.64,13.73 -12.99,23.72 -23.9,32.23q-0.48,0.37 -0.15,0.88q10.55,16.31 22.96,31.24q1.3,1.57 0.82,-0.41c-6.53,-26.9 3.04,-51.4 20.4,-71.58a0.39,0.38 52.5 0 1 0.64,0.09c7.49,15.78 15.47,31.34 19.07,48.59c3.78,18.1 -2.14,36.45 -14.49,49.84a1.03,1.03 0 0 0 0.05,1.45q14.54,13.67 30.34,25.85a0.37,0.36 -45.6 0 0 0.46,-0.01q0.29,-0.26 0.05,-0.75q-1.57,-3.33 -2.59,-6.88c-7.17,-25.03 -2.36,-49.16 10.94,-70.58a0.41,0.41 0 0 1 0.69,-0.02c10.79,14.95 22.27,30.05 29.08,47.33c6.93,17.56 4.26,36.01 -5.01,52.08a1.18,1.18 0 0 0 0.45,1.62c12.41,6.85 23.34,13.22 37.6,18.81q0.68,0.27 0.23,-0.3zm-127.51,-464.26l44.3,-30.22a0.21,0.21 0 0 0 0.05,-0.29l-0.53,-0.79a26.83,0.94 -34.3 0 0 -22.69,14.35l-0.32,0.21a26.83,0.94 -34.3 0 0 -21.63,15.9l0.53,0.78a0.21,0.21 0 0 0 0.29,0.06zm401.02,-0.9c-13.89,-10.86 -27.94,-22.33 -44.1,-29.27q-1.5,-0.65 -0.22,0.38c4.08,3.28 9.33,6.29 13.02,8.9q15.18,10.73 30.7,20.92q0.18,0.12 0.34,-0.02l0.27,-0.21q0.44,-0.35 -0.01,-0.7zm33.54,26.98c-0.16,-11.01 -0.22,-22.01 -0.72,-33.02q-0.2,-4.22 0.03,-11.05q0.01,-0.24 -0.23,-0.27l-0.01,0a0.26,0.26 0 0 0 -0.28,0.21c-3.5,17.76 -2.08,38.61 0.33,56.03q0.36,2.62 0.55,-0.02q0.42,-5.69 0.33,-11.88zm-468.1,-44.09l-1.28,56.54a0.15,0.15 0 0 0 0.15,0.16l0.06,0a28.26,2.53 -88.7 0 0 3.17,-28.2l0,-0.34a28.26,2.53 -88.7 0 0 -1.88,-28.31l-0.06,0a0.15,0.15 0 0 0 -0.16,0.15zm63.1283,54.0593a26.3,1.28 -7.1 0 0 -26.2565,1.9805a26.3,1.28 -7.1 0 0 -25.9401,4.5209a26.3,1.28 -7.1 0 0 26.2565,-1.9805a26.3,1.28 -7.1 0 0 25.9401,-4.5209zm393.1859,6.4722a26.27,1.29 7 0 0 -25.917,-4.4819a26.27,1.29 7 0 0 -26.2314,-1.9211a26.27,1.29 7 0 0 25.917,4.4819a26.27,1.29 7 0 0 26.2314,1.9211zm-486.2742,56.8085c-3.04,-18.44 -6.22,-36.63 -13.39,-54.02a0.25,0.25 0 0 0 -0.47,0.15c3.85,16.82 7.67,33.56 11.85,50.3q0.7,2.81 1.14,3.83q1.48,3.43 0.87,-0.26zm539.04,-49.54q-8.2,22.21 -11.03,45.71c-0.18,1.51 -0.91,3.47 -1,5.29q-0.05,0.98 0.45,0.14q1.03,-1.7 1.51,-3.62q6.43,-25.82 12.21,-51.79q0.16,-0.7 -0.3,-0.15c-0.92,1.07 -1.35,3.09 -1.84,4.42zm-21.91,53.56c-12.3,-6.09 -26.73,-12.67 -40.36,-16.79q-6.44,-1.95 -9.95,-2.53c-0.87,-0.15 -1.56,-0.7 -2.43,-0.89a0.21,0.21 0 0 0 -0.16,0.38q1.46,0.98 5.06,2.24c10.5,3.67 24.05,10.01 37.6,14.73q4.85,1.69 9.56,3.7a0.53,0.53 0 0 0 0.69,-0.26l0.11,-0.24q0.12,-0.23 -0.12,-0.34zm-506.1,0.78l48.46,-18.95q5.78,-2.26 -0.41,-1.09q-2.61,0.49 -8.98,2.57q-20.41,6.66 -39.53,16.43q-0.43,0.22 -0.27,0.69q0.18,0.57 0.73,0.35zm-26.86,70.97c-7.59,-17.9 -16.88,-35.47 -28.78,-50.89q-0.15,-0.2 -0.36,-0.06l-0.21,0.14q-0.04,0.02 -0.02,0.06q12.02,21.36 23.86,42.82q1.12,2.04 5.04,8.18a0.26,0.26 0 0 0 0.34,0.09l0.01,-0.01a0.26,0.26 0 0 0 0.12,-0.33zm588.16,-50.51l-0.23,-0.15q-0.37,-0.24 -0.64,0.11q-17.87,24.1 -27.89,49.34q-1.9,4.77 0.73,0.36q4.84,-8.15 10.12,-17.75q8.78,-15.96 17.97,-31.65q0.09,-0.16 -0.06,-0.26zm-576.23,50.01l44.17,-33.28a0.15,0.15 0 0 0 0.03,-0.21l-0.05,-0.06a27.65,2.51 -37 0 0 -23.59,14.64l-0.24,0.18a27.65,2.51 -37 0 0 -20.58,18.64l0.05,0.06a0.15,0.15 0 0 0 0.21,0.03zm492.96,-33.07q-4.1,-2.09 -0.44,0.71l41.91,32.08a0.61,0.6 -83.3 0 0 0.92,-0.73q-0.11,-0.25 -0.41,-0.53q-15.34,-14.41 -32.78,-26.21q-3.8,-2.57 -9.2,-5.32zm-483.28,104.35q-1.72,2.89 -3.18,5.91q-0.21,0.42 -0.01,0.82q0.22,0.47 0.55,0.06c11.37,-13.97 21.23,-29.56 31.48,-43.97q0.97,-1.37 -0.29,-0.26q-4.69,4.12 -9,9.44q-10.79,13.29 -19.55,28zm518.01,4q-10.26,-17.63 -23.09,-33.46q-3.81,-4.7 -7.59,-7.87q-1.55,-1.31 -0.38,0.35c8.97,12.76 18,25.48 26.97,38.25q2.25,3.21 4.23,5.23q1.39,1.43 0.8,-0.54q-0.2,-0.67 -0.94,-1.96zm-532.03,7.73a0.14,0.14 0 0 0 0.2,-0.2c-12.45,-14.97 -25.52,-27.64 -42.19,-39.77q-0.04,-0.02 -0.07,0.01l-0.16,0.2q-0.16,0.19 0.02,0.36q17.35,16.75 34.79,33.41c2.29,2.19 4.79,3.9 7.41,5.99zm543.69,0.93l42.74,-40.41a0.02,0.02 0 0 0 0,-0.03l0,0a29.24,2.8 -43.4 0 0 -23.17,18.05l-0.28,0.27a29.24,2.8 -43.4 0 0 -19.32,22.12l0,0a0.02,0.02 0 0 0 0.03,0zm-53.72,14.41q-1.28,-2.89 -2.72,-5.04q-0.59,-0.89 -0.28,0.13c5.54,17.94 10.68,36.48 17.28,54.1q0.79,2.13 1.24,-0.1q0.07,-0.35 -0.55,-1.23q-0.4,-0.59 -0.51,-1.2q-4.49,-24.19 -14.46,-46.66zm-438.13,4.49q-8.12,19.59 -12.39,40.36q-0.52,2.53 -0.32,4.45q0.14,1.46 0.59,0.06l16.89,-53.35q0.6,-1.91 -0.44,-0.2q-2.3,3.79 -4.33,8.68zm-73.81,26.21l50.58,24.45a0.45,0.45 0 0 0 0.6,-0.21l0.38,-0.77a28.36,1.03 25.8 0 0 -25.09,-13.28l-0.32,-0.15a28.36,1.03 25.8 0 0 -25.98,-11.42l-0.38,0.78a0.45,0.45 0 0 0 0.21,0.6zm581.49,3.08c1.78,-0.81 4.4,-1.73 6.22,-3.16q0.8,-0.62 -0.16,-0.3c-2.2,0.74 -4.66,1.14 -6.71,1.9q-23.02,8.45 -43.65,21.72q-0.18,0.12 -0.43,0.18q-0.4,0.1 -0.41,0.23a0.56,0.56 0 0 0 0.81,0.57c5.98,-3 12.49,-5.66 18.07,-8.47q13.02,-6.55 26.26,-12.67zm-474.59,76.69q0.23,-7.27 0.83,-14.52c1.11,-13.39 1.58,-26.25 2.66,-39.35q0.2,-2.44 0.07,-4.49q-0.06,-0.92 -0.27,-0.02c-3.59,15.37 -4.71,27.73 -4.85,46.5c-0.02,4.12 0.33,8.03 0.72,12.07q0.02,0.16 0.19,0.15l0.32,-0.01a0.34,0.34 0 0 0 0.33,-0.33zm370.89,-57.03q-0.26,-0.96 -0.54,-1.4q-0.29,-0.45 -0.25,0.09l3.85,58.48q0.02,0.37 0.39,0.36l0.32,0q0.52,-0.01 0.54,-0.53q1.19,-22.38 -1.82,-44.59q-0.85,-6.29 -2.49,-12.41zm-311.86,108.75l0.3,-0.11a0.73,0.72 -12.6 0 0 0.49,-0.76l-6.33,-59.23q-0.05,-0.48 -0.14,0q-1.13,5.87 -0.94,12.77q0.62,22 6.29,47.15q0.06,0.28 0.33,0.18zm262.13,-61.01l-0.26,-0.01q-0.34,0 -0.38,0.33q-2.83,26.55 -5.85,53.11q-0.21,1.79 -0.47,7.23q-0.03,0.62 0.45,0.22q0.69,-0.58 0.89,-1.5c4.19,-19.25 6.86,-39.56 5.72,-59.29q-0.01,-0.09 -0.1,-0.09zm-330.28,16.96q-8.08,-2.15 -16.05,-4.49q-18.97,-5.57 -38.7,-6.63c-1.21,-0.06 -2.12,-0.39 -3.22,-0.79q-0.2,-0.08 -0.28,0.12l0,0.01q-0.08,0.2 0.11,0.29c3.59,1.68 7.98,2.09 10.85,2.76q19.4,4.56 38.96,8.41q4.38,0.86 8.97,1.73a0.27,0.27 0 0 0 0.28,-0.41l-0.35,-0.58a0.98,0.96 -8 0 0 -0.57,-0.42zm405.16,-3.62q-3.68,1.17 -12.81,3.5a1.04,1.02 -2.8 0 0 -0.76,0.82l-0.05,0.26q-0.06,0.38 0.31,0.32c18.38,-3.18 36.42,-7.66 54.73,-11.35c1.23,-0.25 2.26,-0.84 3.35,-1.41q0.17,-0.09 0.09,-0.26l-0.01,-0.01q-0.07,-0.17 -0.25,-0.1q-1.7,0.69 -3.54,0.78q-21.01,1.11 -41.06,7.45zm-285.81,33.5q-1.34,-3.04 -2.75,-5.34q-0.51,-0.82 -0.27,0.11c4.95,19.25 13.74,37.64 23.67,54.82q0.24,0.42 0.63,0.6q0.56,0.27 0.34,-0.32c-6.57,-16.83 -14.34,-33.32 -21.62,-49.87zm132.89,48.67c9.11,-15.11 17.82,-33.03 22.45,-49.54q2.44,-8.7 -1.23,-0.44q-8.13,18.36 -18.22,40.9q-2.23,5 -3.57,8.81q-1.02,2.92 0.57,0.27zm-191.04,-23.69c-3.32,-0.37 -6.94,-1.36 -10.56,-1.6q-3.7,-0.25 -5.31,-0.47q-23.25,-3.17 -44.18,-0.09q-5.11,0.75 0.05,0.92q9.35,0.32 18.57,0.51c8.53,0.18 19.16,1.18 28.8,1.12c3.67,-0.02 8.45,0.6 12.63,0.16q2.56,-0.27 0,-0.55zm328.65,-2.35q-17.52,-2.1 -35.11,-0.37q-6.51,0.64 -13.03,1.12c-3.8,0.28 -7.81,1.37 -11.85,1.71q-0.23,0.02 -0.23,0.25l0,0.01q0,0.23 0.23,0.25q3.47,0.31 6.92,0.06c7.11,-0.51 14.15,-0.25 21.27,-0.71c12.13,-0.79 22.31,-0.87 33.63,-1.23q3.32,-0.11 0.09,-0.85q-0.1,-0.03 -1.92,-0.24zm-256.45,36.61c-20.84,3.81 -35.39,7.47 -53.05,15.69q-0.32,0.14 -0.09,0.4l0.19,0.21q0.01,0.01 0.01,0.01c9.55,-2.94 19.52,-5.02 29,-7.96c8.97,-2.79 16.74,-4.29 24.87,-7.26a0.27,0.27 0 0 0 0.14,-0.39l-0.16,-0.27q-0.31,-0.54 -0.91,-0.43zm174.11,13.82c-15.62,-6.49 -31.38,-11.01 -48.51,-13.61a0.99,0.99 0 0 0 -0.96,0.42l-0.18,0.26a0.24,0.24 0 0 0 0.13,0.36q7.2,2.39 14.53,4.21c4.87,1.21 9.73,2.94 14.67,4.22c7.75,2.02 13.81,3.87 19.87,5.49q10.38,2.77 0.45,-1.35z"
            id="svg_97" />
        <path fill="#f2f0f3"
            d="m596.27218,112.73839a0.21,0.21 0 0 1 -0.29,-0.06l-0.53,-0.78a26.83,0.94 -34.3 0 1 21.63,-15.9l0.32,-0.21a26.83,0.94 -34.3 0 1 22.69,-14.35l0.53,0.79a0.21,0.21 0 0 1 -0.05,0.29l-44.3,30.22z"
            id="svg_98" />
        <path fill="#f2f0f3"
            d="m953.19218,82.56839c16.16,6.94 30.21,18.41 44.1,29.27q0.45,0.35 0.01,0.7l-0.27,0.21q-0.16,0.14 -0.34,0.02q-15.52,-10.19 -30.7,-20.92c-3.69,-2.61 -8.94,-5.62 -13.02,-8.9q-1.28,-1.03 0.22,-0.38z"
            id="svg_99" />
        <path fill="#f2f0f3"
            d="m1030.83218,138.81839q0.09,6.19 -0.33,11.88q-0.19,2.64 -0.55,0.02c-2.41,-17.42 -3.83,-38.27 -0.33,-56.03a0.26,0.26 0 0 1 0.28,-0.21l0.01,0q0.24,0.03 0.23,0.27q-0.23,6.83 -0.03,11.05c0.5,11.01 0.56,22.01 0.72,33.02z"
            id="svg_100" />
        <path fill="#f2f0f3"
            d="m562.73218,94.72839a0.15,0.15 0 0 1 0.16,-0.15l0.06,0a28.26,2.53 -88.7 0 1 1.88,28.31l0,0.34a28.26,2.53 -88.7 0 1 -3.17,28.2l-0.06,0a0.15,0.15 0 0 1 -0.15,-0.16l1.28,-56.54z"
            id="svg_101" />
        <ellipse fillfff="#" cx="599.76219" cy="152.03838" rx="26.3" ry="1.28" id="svg_102" />
        <ellipse fillfff="#" cx="992.97221" cy="152.0584" rx="26.27" ry="1.29" id="svg_103" />
        <path fill="#fff"
            d="m519.38218,158.04839c7.17,17.39 10.35,35.58 13.39,54.02q0.61,3.69 -0.87,0.26q-0.44,-1.02 -1.14,-3.83c-4.18,-16.74 -8,-33.48 -11.85,-50.3a0.25,0.25 0 0 1 0.47,-0.15z"
            id="svg_104" />
        <path fill="#fff"
            d="m1071.81218,162.52839c0.49,-1.33 0.92,-3.35 1.84,-4.42q0.46,-0.55 0.3,0.15q-5.78,25.97 -12.21,51.79q-0.48,1.92 -1.51,3.62q-0.5,0.84 -0.45,-0.14c0.09,-1.82 0.82,-3.78 1,-5.29q2.83,-23.5 11.03,-45.71z"
            id="svg_105" />
        <path fill="#787878"
            d="m686.29218,365.17839c-9.75,-24.9 -17.62,-52.66 -19.76,-79.36q-3.12,-38.93 -3.72,-78.02q-0.02,-1.51 0.14,-2.6q0.13,-0.92 1.04,-1.05c8.76,-1.28 17.31,-2.38 26.05,-3.97q7.09,-1.3 14.2,-2.53c16.01,-2.76 28.94,-6.86 47.33,-13.42q3.63,-1.3 9.21,-3.88c4.06,-1.88 8.47,-3.49 12.25,-5.31q12.51,-6.03 25.02,-12.06c2.88,-1.39 12.52,4.41 15.57,5.99c7.54,3.89 15.59,7.09 23.46,10.48c5.87,2.53 12.78,4.79 19.2,7.3c6.02,2.35 12.21,3.83 18.34,5.71c7.58,2.34 15.11,4.13 22.74,5.34q19.1,3.05 37.97,6.34q1.52,0.26 1.49,1.8q-0.77,38.01 -3.4,75.82c-1.54,22.22 -6.97,44.44 -13.87,65.55c-9.83,30.04 -26.64,59.32 -46.4,82.82q-11.4,13.55 -18.12,19.14q-8.61,7.16 -11.97,10.3c-13.91,13.01 -26.34,20.9 -41.64,28.02a3.68,3.62 39.7 0 1 -2.47,0.21c-3.2,-0.86 -5.98,-2.07 -9.03,-3.94c-6.33,-3.88 -13.02,-7.31 -18.78,-12.06c-4.64,-3.83 -8.7,-7.01 -13.89,-11.5c-3,-2.6 -6.5,-5.08 -9.19,-7.49q-18.59,-16.73 -32.99,-37.24c-10.97,-15.63 -21.79,-32.56 -28.78,-50.39zm213.86,-5.94c3.28,-8.55 6.75,-16.37 8.91,-25.95c2.73,-12.13 6.59,-24.62 7.52,-37.04c1.11,-14.8 2.35,-29.56 2.82,-44.44q0.49,-15.2 0.95,-30.24a1.5,1.5 0 0 0 -1.23,-1.51q-9.21,-1.66 -18.47,-3.26c-4.73,-0.82 -13.48,-1.87 -20.46,-3.44q-16.92,-3.81 -32.15,-9.07c-15.75,-5.46 -30.8,-13.05 -46.04,-20.08q-1.97,-0.91 -3.59,-0.06c-22.54,11.85 -46.55,22.25 -71.08,27.69q-22.44,4.97 -45.74,7.98q-1.94,0.25 -1.77,2.19q0.77,9.31 0.96,19.78q0.49,25.77 3.08,51.38c1.25,12.4 3.4,26.34 6.42,37.11c16.03,57.34 51.42,109.25 105.59,136.73c1.95,0.99 4.39,2.12 6.2,1.29c17.29,-7.91 32.5,-20.22 46.39,-33.01c9.25,-8.52 16.82,-17.4 23.55,-26.87c8.49,-11.94 15.86,-22.68 23.01,-37.23q2.48,-5.04 5.13,-11.95z"
            id="svg_106" />
        <path fill="#171717"
            d="m909.06218,333.28839c-2.16,9.58 -5.63,17.4 -8.91,25.95q-2.65,6.91 -5.13,11.95c-7.15,14.55 -14.52,25.29 -23.01,37.23c-6.73,9.47 -14.3,18.35 -23.55,26.87c-13.89,12.79 -29.1,25.1 -46.39,33.01c-1.81,0.83 -4.25,-0.3 -6.2,-1.29c-54.17,-27.48 -89.56,-79.39 -105.59,-136.73c-3.02,-10.77 -5.17,-24.71 -6.42,-37.11q-2.59,-25.61 -3.08,-51.38q-0.19,-10.47 -0.96,-19.78q-0.17,-1.94 1.77,-2.19q23.3,-3.01 45.74,-7.98c24.53,-5.44 48.54,-15.84 71.08,-27.69q1.62,-0.85 3.59,0.06c15.24,7.03 30.29,14.62 46.04,20.08q15.23,5.26 32.15,9.07c6.98,1.57 15.73,2.62 20.46,3.44q9.26,1.6 18.47,3.26a1.5,1.5 0 0 1 1.23,1.51q-0.46,15.04 -0.95,30.24c-0.47,14.88 -1.71,29.64 -2.82,44.44c-0.93,12.42 -4.79,24.91 -7.52,37.04zm-137.17,-22.93c-4.3,0.22 -12.05,2.05 -14.03,6.73q-1.92,4.54 -0.3,8.84a1.96,1.95 -21.1 0 1 -1.12,2.51c-2.21,0.87 -4.26,1.61 -6.24,2.85q-8.56,5.35 -13.4,12.5c-6.57,9.72 -7.62,19.05 -7.21,29.83q0.04,0.95 0.98,0.95l98.02,0a1.47,1.46 -10.4 0 1 1.37,0.94c4.7,12.34 15.78,19.24 28.76,18.13c21.19,-1.81 32.46,-24.98 22.32,-42.93c-5.45,-9.66 -18.15,-16.61 -29.72,-13.77a2.82,2.8 60.1 0 1 -2.63,-0.72q-5.16,-5 -12.43,-7.35q-1.96,-0.63 -1.86,-2.28c0.23,-4.09 0.96,-7.3 -1.59,-10.64q-4.51,-5.89 -12.46,-5.55a0.82,0.82 0 0 1 -0.67,-1.35q5.68,-6.78 6.83,-15.51c0.39,-3.02 3.68,-5.45 5.5,-7.78c3.18,-4.07 3.92,-10.58 -1.8,-12.79a1.61,1.61 0 0 1 -0.97,-1.93c2.25,-8.02 1.35,-16.57 -5.34,-21.97a1.39,1.39 0 0 1 -0.26,-1.89q2.36,-3.32 1.39,-7.38a0.9,0.89 -20.7 0 0 -1.29,-0.58c-2.28,1.2 -6.61,3.72 -8.94,2.93c-9.3,-3.16 -18.91,-4.62 -28.72,-3.24q-7.09,1 -10.8,6.72c-1.54,2.38 -2.59,2.34 -5.08,3.28c-9.13,3.47 -7.92,15.57 -7.36,23.15a0.96,0.94 -19.1 0 1 -0.43,0.86c-9.26,5.99 -1.76,13.49 2.87,18.68q0.86,0.97 1.18,3.41c0.69,5.27 2.66,9.51 6.19,13.57a1.08,1.08 0 0 1 -0.76,1.78z"
            id="svg_107" />
        <path fill="#fff"
            d="m1009.54218,199.29839c13.63,4.12 28.06,10.7 40.36,16.79q0.24,0.11 0.12,0.34l-0.11,0.24a0.53,0.53 0 0 1 -0.69,0.26q-4.71,-2.01 -9.56,-3.7c-13.55,-4.72 -27.1,-11.06 -37.6,-14.73q-3.6,-1.26 -5.06,-2.24a0.21,0.21 0 0 1 0.16,-0.38c0.87,0.19 1.56,0.74 2.43,0.89q3.51,0.58 9.95,2.53z"
            id="svg_108" />
        <path fill="#fff"
            d="m592.26218,197.91839l-48.46,18.95q-0.55,0.22 -0.73,-0.35q-0.16,-0.47 0.27,-0.69q19.12,-9.77 39.53,-16.43q6.37,-2.08 8.98,-2.57q6.19,-1.17 0.41,1.09z"
            id="svg_109" />
        <path fill="#fff"
            d="m488.16218,236.94839c11.9,15.42 21.19,32.99 28.78,50.89a0.26,0.26 0 0 1 -0.12,0.33l-0.01,0.01a0.26,0.26 0 0 1 -0.34,-0.09q-3.92,-6.14 -5.04,-8.18q-11.84,-21.46 -23.86,-42.82q-0.02,-0.04 0.02,-0.06l0.21,-0.14q0.21,-0.14 0.36,0.06z"
            id="svg_110" />
        <path fill="#fff"
            d="m1105.16218,237.58839q-9.19,15.69 -17.97,31.65q-5.28,9.6 -10.12,17.75q-2.63,4.41 -0.73,-0.36q10.02,-25.24 27.89,-49.34q0.27,-0.35 0.64,-0.11l0.23,0.15q0.15,0.1 0.06,0.26z"
            id="svg_111" />
        <path fill="#fefefe"
            d="m771.89218,310.35839a1.08,1.08 0 0 0 0.76,-1.78c-3.53,-4.06 -5.5,-8.3 -6.19,-13.57q-0.32,-2.44 -1.18,-3.41c-4.63,-5.19 -12.13,-12.69 -2.87,-18.68a0.96,0.94 -19.1 0 0 0.43,-0.86c-0.56,-7.58 -1.77,-19.68 7.36,-23.15c2.49,-0.94 3.54,-0.9 5.08,-3.28q3.71,-5.72 10.8,-6.72c9.81,-1.38 19.42,0.08 28.72,3.24c2.33,0.79 6.66,-1.73 8.94,-2.93a0.9,0.89 -20.7 0 1 1.29,0.58q0.97,4.06 -1.39,7.38a1.39,1.39 0 0 0 0.26,1.89c6.69,5.4 7.59,13.95 5.34,21.97a1.61,1.61 0 0 0 0.97,1.93c5.72,2.21 4.98,8.72 1.8,12.79c-1.82,2.33 -5.11,4.76 -5.5,7.78q-1.15,8.73 -6.83,15.51a0.82,0.82 0 0 0 0.67,1.35q7.95,-0.34 12.46,5.55c2.55,3.34 1.82,6.55 1.59,10.64q-0.1,1.65 1.86,2.28q7.27,2.35 12.43,7.35a2.82,2.8 60.1 0 0 2.63,0.72c11.57,-2.84 24.27,4.11 29.72,13.77c10.14,17.95 -1.13,41.12 -22.32,42.93c-12.98,1.11 -24.06,-5.79 -28.76,-18.13a1.47,1.46 -10.4 0 0 -1.37,-0.94l-98.02,0q-0.94,0 -0.98,-0.95c-0.41,-10.78 0.64,-20.11 7.21,-29.83q4.84,-7.15 13.4,-12.5c1.98,-1.24 4.03,-1.98 6.24,-2.85a1.96,1.95 -21.1 0 0 1.12,-2.51q-1.62,-4.3 0.3,-8.84c1.98,-4.68 9.73,-6.51 14.03,-6.73zm45.05,-59.05a0.76,0.76 0 0 1 -0.4,-1.25l2.72,-3.07q1.99,-2.26 -1.15,-1.48c-0.73,0.18 -1.86,0.18 -2.72,-0.05q-8.78,-2.33 -11.32,-2.94c-7.91,-1.88 -24.4,-2.56 -27.2,8.14a1.14,1.13 -88.2 0 1 -0.87,0.83c-4.47,0.93 -7.83,1.45 -9.17,6.56c-0.99,3.75 -0.76,6.99 -0.69,10.82c0.06,2.73 0.96,4.82 3.81,5.11c2.06,0.22 3.72,-1.51 5.48,-1.61c4.55,-0.24 15.8,-0.93 18.88,3.13a2.5,2.5 0 0 0 3.91,0.09c3.62,-4.37 13.64,-3.55 18.85,-3.35c3.32,0.13 7.63,4.03 8.77,-1.79c1.1,-5.59 2.09,-18.51 -6.28,-18.83q-1.5,-0.05 -2.62,-0.31zm-31.33,35.83a3.57,3.57 0 0 0 2.94,-1.89l2.45,-4.58a3.57,3.57 0 0 0 -2.99,-5.25l-11.14,-0.5a3.57,3.57 0 0 0 -3.67,4.18l0.96,5.54a3.57,3.57 0 0 0 3.73,2.95l7.72,-0.45zm18.6,-11.24a3.26,3.26 0 0 0 -2.64,4.91l2.81,4.78a3.26,3.26 0 0 0 2.71,1.61l8.11,0.26a3.26,3.26 0 0 0 3.33,-2.8l0.8,-5.66a3.26,3.26 0 0 0 -3.39,-3.71l-11.73,0.61zm4.11,15.28c-6.73,-0.68 -7.9,-5.44 -10.26,-10.65q-0.7,-1.54 -2.22,-0.8a2.41,2.41 0 0 0 -1.13,1.19c-1.35,3.1 -3.65,9.01 -7.39,9.89q-5.1,1.2 -10.84,0.12c-6.11,-1.16 -6.25,-6.95 -6.91,-11.63q-0.5,-3.51 -4.02,-3.05l-0.94,0.12q-3.51,0.46 -2.85,3.94c0.76,3.99 4.06,7.28 7.16,9.8c0.76,0.62 1.47,1.73 1.53,2.56c0.73,9.98 6.1,16.95 14.22,22.24c9.76,6.36 19.53,4.07 27.95,-3.04q9.64,-8.14 10.89,-20.05c0.38,-3.66 11.52,-10.76 6.93,-14.48c-1.58,-1.28 -4.22,-0.8 -6.01,-0.09a1.25,1.24 82.9 0 0 -0.78,1.01c-1.36,11 -3.6,14.1 -15.33,12.92zm-47.6,31.17c-0.25,10.93 10.41,18 19.69,20.6c2.66,0.75 4.52,-2.9 5.89,-4.61a1.17,1.16 -55.9 0 0 -0.33,-1.75c-8.61,-4.86 -10.32,-12.64 -10.96,-21.78q-0.05,-0.81 -0.86,-0.85c-5.64,-0.24 -13.27,1.44 -13.43,8.39zm55.53,-6.62c0.07,7.5 -2.71,16.19 -9.32,20.55a0.85,0.85 0 0 0 -0.2,1.23l3.78,4.82a2.11,2.11 0 0 0 2.39,0.68c6.74,-2.47 16.1,-8.67 17.77,-16.06c0.59,-2.62 0.99,-6.81 -0.8,-9.07c-2.69,-3.41 -8.29,-4.24 -12.24,-3.73a1.58,1.58 0 0 0 -1.38,1.58zm-15.8,5.88c-7.9,2.04 -13.59,-0.78 -19.99,-4.93q-0.7,-0.45 -1.19,-0.52a0.63,0.63 0 0 0 -0.71,0.7c1.01,8.38 4.85,17.68 14.5,18.83c12.91,1.53 18.35,-6.98 20.06,-18.48a0.66,0.66 0 0 0 -0.7,-0.75q-0.61,0.04 -1.27,0.47q-4.99,3.2 -10.7,4.68zm-63.37,29.18c-3.5,6.98 -3.55,12.01 -4.14,18.81a1.16,1.15 -87.5 0 0 1.15,1.26l93.46,-0.02a0.93,0.93 0 0 0 0.92,-1.08c-0.3,-1.95 -0.82,-4.03 -0.64,-5.98q1.61,-16.85 17.15,-24.43a0.99,0.99 0 0 0 0.18,-1.67q-4.85,-3.89 -10.7,-6a1.9,1.89 23.9 0 0 -2.31,0.89c-4.1,7.59 -10.49,10.87 -18.53,13.65c-2.44,0.85 -2.48,2.93 -0.58,4.52q1.99,1.67 2.49,2.35c3.34,4.47 -1.71,11.48 -7.17,9.65c-2.85,-0.95 -5.04,-4.39 -4.41,-7.55c0.43,-2.18 2.52,-3.55 4.06,-4.93q0.37,-0.33 0.44,-0.82c1.77,-11.04 -9.24,-10.33 -16.14,-9.64c-6.93,0.7 -6.87,6.71 -6.5,12.67c0.17,2.8 2.65,3.4 3.7,5.4c1.82,3.48 0.67,8.14 -3.51,9.09c-2.25,0.51 -5.67,0.44 -7.19,-1.67c-3.61,-5 -1.12,-7.54 2.64,-10.85a1.38,1.37 -16.8 0 0 0.46,-0.85c0.24,-1.55 0.13,-3.11 0.17,-4.67q0.04,-1.71 -1.95,-2.21q-13.11,-3.25 -20.5,-14.41a1.66,1.65 -28 0 0 -2.01,-0.61q-13.87,5.78 -20.54,19.1zm144.37,14.37a24.88,24.88 0 0 0 -24.88,-24.88a24.88,24.88 0 0 0 -24.88,24.88a24.88,24.88 0 0 0 24.88,24.88a24.88,24.88 0 0 0 24.88,-24.88zm-68.86,-8.65a2.72,2.72 0 0 0 -2.72,-2.72a2.72,2.72 0 0 0 -2.72,2.72a2.72,2.72 0 0 0 2.72,2.72a2.72,2.72 0 0 0 2.72,-2.72zm-25.85,4.39a2.97,2.97 0 0 0 -2.97,-2.97a2.97,2.97 0 0 0 -2.97,2.97a2.97,2.97 0 0 0 2.97,2.97a2.97,2.97 0 0 0 2.97,-2.97z"
            id="svg_112" />
        <path fill="#171717"
            d="m816.94218,251.30839q1.12,0.26 2.62,0.31c8.37,0.32 7.38,13.24 6.28,18.83c-1.14,5.82 -5.45,1.92 -8.77,1.79c-5.21,-0.2 -15.23,-1.02 -18.85,3.35a2.5,2.5 0 0 1 -3.91,-0.09c-3.08,-4.06 -14.33,-3.37 -18.88,-3.13c-1.76,0.1 -3.42,1.83 -5.48,1.61c-2.85,-0.29 -3.75,-2.38 -3.81,-5.11c-0.07,-3.83 -0.3,-7.07 0.69,-10.82c1.34,-5.11 4.7,-5.63 9.17,-6.56a1.14,1.13 -88.2 0 0 0.87,-0.83c2.8,-10.7 19.29,-10.02 27.2,-8.14q2.54,0.61 11.32,2.94c0.86,0.23 1.99,0.23 2.72,0.05q3.14,-0.78 1.15,1.48l-2.72,3.07a0.76,0.76 0 0 0 0.4,1.25z"
            id="svg_113" />
        <path fill="#fff"
            d="m528.87218,287.33839a0.15,0.15 0 0 1 -0.21,-0.03l-0.05,-0.06a27.65,2.51 -37 0 1 20.58,-18.64l0.24,-0.18a27.65,2.51 -37 0 1 23.59,-14.64l0.05,0.06a0.15,0.15 0 0 1 -0.03,0.21l-44.17,33.28z"
            id="svg_114" />
        <path fill="#fff"
            d="m1021.83218,254.26839q5.4,2.75 9.2,5.32q17.44,11.8 32.78,26.21q0.3,0.28 0.41,0.53a0.61,0.6 -83.3 0 1 -0.92,0.73l-41.91,-32.08q-3.66,-2.8 0.44,-0.71z"
            id="svg_115" />
        <path fill="#171717"
            d="m785.61218,287.13839l-7.72,0.45a3.57,3.57 0 0 1 -3.73,-2.95l-0.96,-5.54a3.57,3.57 0 0 1 3.67,-4.18l11.14,0.5a3.57,3.57 0 0 1 2.99,5.25l-2.45,4.58a3.57,3.57 0 0 1 -2.94,1.89z"
            id="svg_116" />
        <path fill="#171717"
            d="m804.21218,275.89839l11.73,-0.61a3.26,3.26 0 0 1 3.39,3.71l-0.8,5.66a3.26,3.26 0 0 1 -3.33,2.8l-8.11,-0.26a3.26,3.26 0 0 1 -2.71,-1.61l-2.81,-4.78a3.26,3.26 0 0 1 2.64,-4.91z"
            id="svg_117" />
        <path fill="#171717"
            d="m798.06218,280.52839c2.36,5.21 3.53,9.97 10.26,10.65c11.73,1.18 13.97,-1.92 15.33,-12.92a1.25,1.24 82.9 0 1 0.78,-1.01c1.79,-0.71 4.43,-1.19 6.01,0.09c4.59,3.72 -6.55,10.82 -6.93,14.48q-1.25,11.91 -10.89,20.05c-8.42,7.11 -18.19,9.4 -27.95,3.04c-8.12,-5.29 -13.49,-12.26 -14.22,-22.24c-0.06,-0.83 -0.77,-1.94 -1.53,-2.56c-3.1,-2.52 -6.4,-5.81 -7.16,-9.8q-0.66,-3.48 2.85,-3.94l0.94,-0.12q3.52,-0.46 4.02,3.05c0.66,4.68 0.8,10.47 6.91,11.63q5.74,1.08 10.84,-0.12c3.74,-0.88 6.04,-6.79 7.39,-9.89a2.41,2.41 0 0 1 1.13,-1.19q1.52,-0.74 2.22,0.8z"
            id="svg_118" />
        <path fill="#171717"
            d="m780.41218,342.94839c-9.28,-2.6 -19.94,-9.67 -19.69,-20.6c0.16,-6.95 7.79,-8.63 13.43,-8.39q0.81,0.04 0.86,0.85c0.64,9.14 2.35,16.92 10.96,21.78a1.17,1.16 -55.9 0 1 0.33,1.75c-1.37,1.71 -3.23,5.36 -5.89,4.61z"
            id="svg_119" />
        <path fill="#171717"
            d="m806.93218,336.27839c6.61,-4.36 9.39,-13.05 9.32,-20.55a1.58,1.58 0 0 1 1.38,-1.58c3.95,-0.51 9.55,0.32 12.24,3.73c1.79,2.26 1.39,6.45 0.8,9.07c-1.67,7.39 -11.03,13.59 -17.77,16.06a2.11,2.11 0 0 1 -2.39,-0.68l-3.78,-4.82a0.85,0.85 0 0 1 0.2,-1.23z"
            id="svg_120" />
        <path fill="#171717"
            d="m780.46218,316.67839c6.4,4.15 12.09,6.97 19.99,4.93q5.71,-1.48 10.7,-4.68q0.66,-0.43 1.27,-0.47a0.66,0.66 0 0 1 0.7,0.75c-1.71,11.5 -7.15,20.01 -20.06,18.48c-9.65,-1.15 -13.49,-10.45 -14.5,-18.83a0.63,0.63 0 0 1 0.71,-0.7q0.49,0.07 1.19,0.52z"
            id="svg_121" />
        <path fill="#fff"
            d="m538.55218,358.61839q8.76,-14.71 19.55,-28q4.31,-5.32 9,-9.44q1.26,-1.11 0.29,0.26c-10.25,14.41 -20.11,30 -31.48,43.97q-0.33,0.41 -0.55,-0.06q-0.2,-0.4 0.01,-0.82q1.46,-3.02 3.18,-5.91z"
            id="svg_122" />
        <path fill="#fff"
            d="m1056.56218,362.61839q0.74,1.29 0.94,1.96q0.59,1.97 -0.8,0.54q-1.98,-2.02 -4.23,-5.23c-8.97,-12.77 -18,-25.49 -26.97,-38.25q-1.17,-1.66 0.38,-0.35q3.78,3.17 7.59,7.87q12.83,15.83 23.09,33.46z"
            id="svg_123" />
        <path fill="#fff"
            d="m524.53218,370.34839c-2.62,-2.09 -5.12,-3.8 -7.41,-5.99q-17.44,-16.66 -34.79,-33.41q-0.18,-0.17 -0.02,-0.36l0.16,-0.2q0.03,-0.03 0.07,-0.01c16.67,12.13 29.74,24.8 42.19,39.77a0.14,0.14 0 0 1 -0.2,0.2z"
            id="svg_124" />
        <path fill="#fff"
            d="m1068.22218,371.27839a0.02,0.02 0 0 1 -0.03,0l0,0a29.24,2.8 -43.4 0 1 19.32,-22.12l0.28,-0.27a29.24,2.8 -43.4 0 1 23.17,-18.05l0,0a0.02,0.02 0 0 1 0,0.03l-42.74,40.41z"
            id="svg_125" />
        <path fill="#171717"
            d="m737.08218,350.78839q6.67,-13.32 20.54,-19.1a1.66,1.65 -28 0 1 2.01,0.61q7.39,11.16 20.5,14.41q1.99,0.5 1.95,2.21c-0.04,1.56 0.07,3.12 -0.17,4.67a1.38,1.37 -16.8 0 1 -0.46,0.85c-3.76,3.31 -6.25,5.85 -2.64,10.85c1.52,2.11 4.94,2.18 7.19,1.67c4.18,-0.95 5.33,-5.61 3.51,-9.09c-1.05,-2 -3.53,-2.6 -3.7,-5.4c-0.37,-5.96 -0.43,-11.97 6.5,-12.67c6.9,-0.69 17.91,-1.4 16.14,9.64q-0.07,0.49 -0.44,0.82c-1.54,1.38 -3.63,2.75 -4.06,4.93c-0.63,3.16 1.56,6.6 4.41,7.55c5.46,1.83 10.51,-5.18 7.17,-9.65q-0.5,-0.68 -2.49,-2.35c-1.9,-1.59 -1.86,-3.67 0.58,-4.52c8.04,-2.78 14.43,-6.06 18.53,-13.65a1.9,1.89 23.9 0 1 2.31,-0.89q5.85,2.11 10.7,6a0.99,0.99 0 0 1 -0.18,1.67q-15.54,7.58 -17.15,24.43c-0.18,1.95 0.34,4.03 0.64,5.98a0.93,0.93 0 0 1 -0.92,1.08l-93.46,0.02a1.16,1.15 -87.5 0 1 -1.15,-1.26c0.59,-6.8 0.64,-11.83 4.14,-18.81z"
            id="svg_126" />
        <path fill="#171717"
            d="m881.45218,365.15839a24.88,24.88 0 0 1 -24.88,24.88a24.88,24.88 0 0 1 -24.88,-24.88a24.88,24.88 0 0 1 24.88,-24.88a24.88,24.88 0 0 1 24.88,24.88zm-17.0917,-11.5393a1.41,1.41 0 0 0 -0.636,-1.8899l-0.7165,-0.3557a1.41,1.41 0 0 0 -1.8899,0.636l-12.4142,25.0082a1.41,1.41 0 0 0 0.636,1.8899l0.7165,0.3557a1.41,1.41 0 0 0 1.8899,-0.636l12.4142,-25.0082zm-21.6083,12.5093a1.27,1.26 -44.2 0 1 0.03,-1.82l3.34,-3.14q1.52,-1.43 0.26,-3.09l-0.26,-0.33a1.32,1.32 0 0 0 -1.99,-0.13l-6.62,6.66a1.44,1.44 0 0 0 0.01,2.04l6.79,6.64a1.45,1.44 40.4 0 0 2.16,-0.17l0.19,-0.27a2.07,2.07 0 0 0 -0.2,-2.72l-3.71,-3.67zm27.35,-2.11a1.77,1.76 -44.7 0 1 -0.02,2.55l-3.38,3.21a1.97,1.96 51.7 0 0 -0.29,2.51l0.32,0.48a1.22,1.22 0 0 0 1.87,0.2l6.91,-6.72a1.37,1.36 -45.1 0 0 0,-1.95l-6.84,-6.66a1.32,1.32 0 0 0 -1.93,0.1l-0.24,0.28a1.95,1.95 0 0 0 0.14,2.65l3.46,3.35z"
            id="svg_127" />
        <rect fill="#fff" x="854.72215" y="349.94837" width="3.62" height="30.74" rx="1.41" id="svg_128" />
        <circle fill="#171717" cx="809.87218" cy="356.50839" r="2.72" id="svg_129" />
        <path fill="#fefefe"
            d="m842.75218,366.12839l3.71,3.67a2.07,2.07 0 0 1 0.2,2.72l-0.19,0.27a1.45,1.44 40.4 0 1 -2.16,0.17l-6.79,-6.64a1.44,1.44 0 0 1 -0.01,-2.04l6.62,-6.66a1.32,1.32 0 0 1 1.99,0.13l0.26,0.33q1.26,1.66 -0.26,3.09l-3.34,3.14a1.27,1.26 -44.2 0 0 -0.03,1.82z"
            id="svg_130" />
        <path fill="#fefefe"
            d="m870.10218,364.01839l-3.46,-3.35a1.95,1.95 0 0 1 -0.14,-2.65l0.24,-0.28a1.32,1.32 0 0 1 1.93,-0.1l6.84,6.66a1.37,1.36 -45.1 0 1 0,1.95l-6.91,6.72a1.22,1.22 0 0 1 -1.87,-0.2l-0.32,-0.48a1.97,1.96 51.7 0 1 0.29,-2.51l3.38,-3.21a1.77,1.76 -44.7 0 0 0.02,-2.55z"
            id="svg_131" />
        <circle fill="#171717" cx="783.77218" cy="360.89839" r="2.97" id="svg_132" />
        <path fill="#fff"
            d="m1014.50218,385.68839q9.97,22.47 14.46,46.66q0.11,0.61 0.51,1.2q0.62,0.88 0.55,1.23q-0.45,2.23 -1.24,0.1c-6.6,-17.62 -11.74,-36.16 -17.28,-54.1q-0.31,-1.02 0.28,-0.13q1.44,2.15 2.72,5.04z"
            id="svg_133" />
        <path fill="#fff"
            d="m576.37218,390.17839q2.03,-4.89 4.33,-8.68q1.04,-1.71 0.44,0.2l-16.89,53.35q-0.45,1.4 -0.59,-0.06q-0.2,-1.92 0.32,-4.45q4.27,-20.77 12.39,-40.36z"
            id="svg_134" />
        <path fill="#fff"
            d="m502.56218,416.38839a0.45,0.45 0 0 1 -0.21,-0.6l0.38,-0.78a28.36,1.03 25.8 0 1 25.98,11.42l0.32,0.15a28.36,1.03 25.8 0 1 25.09,13.28l-0.38,0.77a0.45,0.45 0 0 1 -0.6,0.21l-50.58,-24.45z"
            id="svg_135" />
        <path fill="#fff"
            d="m1084.05218,419.46839q-13.24,6.12 -26.26,12.67c-5.58,2.81 -12.09,5.47 -18.07,8.47a0.56,0.56 0 0 1 -0.81,-0.57q0.01,-0.13 0.41,-0.23q0.25,-0.06 0.43,-0.18q20.63,-13.27 43.65,-21.72c2.05,-0.76 4.51,-1.16 6.71,-1.9q0.96,-0.32 0.16,0.3c-1.82,1.43 -4.44,2.35 -6.22,3.16z"
            id="svg_136" />
        <path fill="#fff"
            d="m609.46218,496.15839a0.34,0.34 0 0 1 -0.33,0.33l-0.32,0.01q-0.17,0.01 -0.19,-0.15c-0.39,-4.04 -0.74,-7.95 -0.72,-12.07c0.14,-18.77 1.26,-31.13 4.85,-46.5q0.21,-0.9 0.27,0.02q0.13,2.05 -0.07,4.49c-1.08,13.1 -1.55,25.96 -2.66,39.35q-0.6,7.25 -0.83,14.52z"
            id="svg_137" />
        <path fill="#fff"
            d="m980.35218,439.12839q1.64,6.12 2.49,12.41q3.01,22.21 1.82,44.59q-0.02,0.52 -0.54,0.53l-0.32,0q-0.37,0.01 -0.39,-0.36l-3.85,-58.48q-0.04,-0.54 0.25,-0.09q0.28,0.44 0.54,1.4z"
            id="svg_138" />
        <path fill="#fff"
            d="m668.49218,547.87839q-0.27,0.1 -0.33,-0.18q-5.67,-25.15 -6.29,-47.15q-0.19,-6.9 0.94,-12.77q0.09,-0.48 0.14,0l6.33,59.23a0.73,0.72 -12.6 0 1 -0.49,0.76l-0.3,0.11z"
            id="svg_139" />
        <path fill="#fff"
            d="m930.72218,486.95839c1.14,19.73 -1.53,40.04 -5.72,59.29q-0.2,0.92 -0.89,1.5q-0.48,0.4 -0.45,-0.22q0.26,-5.44 0.47,-7.23q3.02,-26.56 5.85,-53.11q0.04,-0.33 0.38,-0.33l0.26,0.01q0.09,0 0.1,0.09z"
            id="svg_140" />
        <path fill="#fff"
            d="m600.34218,503.82839a0.98,0.96 -8 0 1 0.57,0.42l0.35,0.58a0.27,0.27 0 0 1 -0.28,0.41q-4.59,-0.87 -8.97,-1.73q-19.56,-3.85 -38.96,-8.41c-2.87,-0.67 -7.26,-1.08 -10.85,-2.76q-0.19,-0.09 -0.11,-0.29l0,-0.01q0.08,-0.2 0.28,-0.12c1.1,0.4 2.01,0.73 3.22,0.79q19.73,1.06 38.7,6.63q7.97,2.34 16.05,4.49z"
            id="svg_141" />
        <path fill="#fff"
            d="m1005.50218,500.20839q20.05,-6.34 41.06,-7.45q1.84,-0.09 3.54,-0.78q0.18,-0.07 0.25,0.1l0.01,0.01q0.08,0.17 -0.09,0.26c-1.09,0.57 -2.12,1.16 -3.35,1.41c-18.31,3.69 -36.35,8.17 -54.73,11.35q-0.37,0.06 -0.31,-0.32l0.05,-0.26a1.04,1.02 -2.8 0 1 0.76,-0.82q9.13,-2.33 12.81,-3.5z"
            id="svg_142" />
        <path fill="#fff"
            d="m719.69218,533.70839c7.28,16.55 15.05,33.04 21.62,49.87q0.22,0.59 -0.34,0.32q-0.39,-0.18 -0.63,-0.6c-9.93,-17.18 -18.72,-35.57 -23.67,-54.82q-0.24,-0.93 0.27,-0.11q1.41,2.3 2.75,5.34z"
            id="svg_143" />
        <path fill="#fff"
            d="m875.03218,532.83839c-4.63,16.51 -13.34,34.43 -22.45,49.54q-1.59,2.65 -0.57,-0.27q1.34,-3.81 3.57,-8.81q10.09,-22.54 18.22,-40.9q3.67,-8.26 1.23,0.44z"
            id="svg_144" />
        <path fill="#fff"
            d="m650.98218,557.08839c3.62,0.24 7.24,1.23 10.56,1.6q2.56,0.28 0,0.55c-4.18,0.44 -8.96,-0.18 -12.63,-0.16c-9.64,0.06 -20.27,-0.94 -28.8,-1.12q-9.22,-0.19 -18.57,-0.51q-5.16,-0.17 -0.05,-0.92q20.93,-3.08 44.18,0.09q1.61,0.22 5.31,0.47z"
            id="svg_145" />
        <path fill="#fff"
            d="m990.19218,556.33839q1.82,0.21 1.92,0.24q3.23,0.74 -0.09,0.85c-11.32,0.36 -21.5,0.44 -33.63,1.23c-7.12,0.46 -14.16,0.2 -21.27,0.71q-3.45,0.25 -6.92,-0.06q-0.23,-0.02 -0.23,-0.25l0,-0.01q0,-0.23 0.23,-0.25c4.04,-0.34 8.05,-1.43 11.85,-1.71q6.52,-0.48 13.03,-1.12q17.59,-1.73 35.11,0.37z"
            id="svg_146" />
        <path fill="#fff"
            d="m680.69218,608.63839c17.66,-8.22 32.21,-11.88 53.05,-15.69q0.6,-0.11 0.91,0.43l0.16,0.27a0.27,0.27 0 0 1 -0.14,0.39c-8.13,2.97 -15.9,4.47 -24.87,7.26c-9.48,2.94 -19.45,5.02 -29,7.96q0,0 -0.01,-0.01l-0.19,-0.21q-0.23,-0.26 0.09,-0.4z"
            id="svg_147" />
        <path fill="#fff"
            d="m859.34218,593.15839c17.13,2.6 32.89,7.12 48.51,13.61q9.93,4.12 -0.45,1.35c-6.06,-1.62 -12.12,-3.47 -19.87,-5.49c-4.94,-1.28 -9.8,-3.01 -14.67,-4.22q-7.33,-1.82 -14.53,-4.21a0.24,0.24 0 0 1 -0.13,-0.36l0.18,-0.26a0.99,0.99 0 0 1 0.96,-0.42z"
            id="svg_148" />
        <path fill="#000000"
            d="m1357.90218,803.64839q-9.4,25.27 -15.28,41.9c-1.29,3.65 0.16,5.44 3.34,6.95q0.51,0.24 0.61,0.79q0.14,0.71 0.01,1.42a0.75,0.75 0 0 1 -0.74,0.62l-19.28,0.01a0.63,0.63 0 0 1 -0.63,-0.56c-0.2,-1.96 1.83,-2.42 3.12,-3.11c3.19,-1.72 6,-8.67 7.36,-12.28q19.77,-52.6 39.58,-105.19q0.16,-0.41 0.39,-0.39a0.8,0.79 -7 0 1 0.67,0.52q19.79,53.31 39.58,106.66c1.42,3.83 4.41,11.1 8.85,11.13q1.46,0.01 1.56,1.46l0.02,0.42q0.09,1.3 -1.2,1.3l-25.41,0.09q-0.45,0 -0.43,-0.45l0.09,-2.04q0.03,-0.65 0.67,-0.72l1.59,-0.16a2.38,2.36 -88.2 0 0 2.1,-1.99q0.36,-2.23 -0.45,-4.44q-7.49,-20.21 -15.38,-41.43q-0.33,-0.87 -1.25,-0.87l-28.89,-0.06q-0.44,0 -0.6,0.42zm2.63,-8.43a0.6,0.6 0 0 0 0.56,0.8l23.96,0a0.6,0.6 0 0 0 0.56,-0.8l-11.98,-32.59a0.6,0.6 0 0 0 -1.12,0l-11.98,32.59z"
            id="svg_149" />
        <path fill="#000000"
            d="m573.63218,803.99839a1.09,1.09 0 0 0 -1.01,-0.71l-28.63,-0.06a1.45,1.43 -79.6 0 0 -1.36,0.95q-7.19,19.84 -14.16,38.94c-0.96,2.63 -2.59,8.57 1.9,8.93q0.9,0.07 1.03,0.97l0.21,1.48q0.13,0.87 -0.75,0.87l-18.63,-0.01q-0.9,0 -0.97,-0.89l-0.1,-1.25q-0.08,-1.06 0.98,-1.05c4.05,0.07 6.73,-6.78 8.22,-10.7q20.33,-53.43 40.53,-107.16a0.42,0.41 -58.3 0 1 0.66,-0.16q0.56,0.52 0.9,1.43q19.39,52.13 38.83,104.25c1.78,4.8 4.59,12.63 9.48,12.32q0.93,-0.06 1.08,0.86l0.2,1.24q0.18,1.09 -0.93,1.09l-24.98,0q-1.51,0 -1.17,-1.47l0.13,-0.57a1.56,1.54 5.9 0 1 1.49,-1.2c4.18,-0.04 2.88,-5.21 2.01,-7.55q-7.62,-20.38 -14.96,-40.55zm-28.17,-8.68a0.52,0.52 0 0 0 0.49,0.7l24.22,0a0.52,0.52 0 0 0 0.49,-0.7l-12.11,-32.87a0.52,0.52 0 0 0 -0.98,0l-12.11,32.87z"
            id="svg_150" />
        <path fill="#000000"
            d="m182.11218,762.62839q12.92,-20.96 37.74,-26.57q11.42,-2.59 26.22,-0.49q8.73,1.23 17.13,5.58c16.55,8.56 27.33,23.93 30.64,42.41c1.47,8.23 1.37,18.12 -0.24,25.48c-7.21,33 -38.07,51.69 -70.98,47.24c-45.23,-6.1 -63.15,-56.93 -40.51,-93.65zm94.63,57.77c8.15,-18.09 5.71,-37.97 -4.77,-54.51c-9.26,-14.6 -25.56,-25.53 -43.49,-23.72c-10.68,1.09 -20.93,6.5 -28.1,14.44c-13.43,14.88 -18.62,35.73 -12.05,54.86c4.57,13.31 12.8,24.71 24.9,32.15c23.9,14.68 52.85,0.42 63.51,-23.22z"
            id="svg_151" />
        <path fill="#000000"
            d="m364.54218,807.79839c-8.77,-5.62 -19.19,-9.21 -29.02,-13.14c-5.63,-2.25 -13.47,-7.04 -17.26,-11.72c-9.22,-11.41 -6.78,-30.57 4.61,-40.08c11.66,-9.73 30.63,-9.63 44.78,-6.09q4.82,1.2 9.58,1.39a0.66,0.66 0 0 1 0.63,0.66l-0.08,18.2a1.19,1.18 74.7 0 1 -0.56,0.99q-0.68,0.42 -1.32,0.12q-0.43,-0.21 -0.53,-0.68c-1.26,-5.88 -2.93,-10.75 -9.09,-12.84c-9.14,-3.09 -21.57,-4.29 -29.89,0.55c-10.7,6.23 -14.74,23.46 -4.07,31.9q4.23,3.35 11.45,6.41q10.6,4.49 21.26,8.88c3.79,1.57 10.99,6.06 14.24,9.28c7.82,7.74 9.82,19.11 7.61,29.64c-4.78,22.85 -32.66,28.55 -51.47,24.16q-3.35,-0.79 -14.93,-4.16c-1.21,-0.35 -2.52,-0.16 -3.68,-0.36q-1.23,-0.21 -1.23,-1.46l0,-19.86a0.99,0.98 -0.3 0 1 0.98,-0.98l0.32,0a1.52,1.51 -3.4 0 1 1.52,1.34c1.06,9.21 6.82,15.15 15.63,17.78c14.57,4.35 32.61,0.62 38.53,-14.68c3.82,-9.85 0.89,-19.55 -8.01,-25.25z"
            id="svg_152" />
        <path fill="#000000"
            d="m478.99218,745.37839c-2.65,-1.29 -7.29,-2.61 -10.69,-2.93c-31.22,-2.92 -55.78,20.39 -55.96,51.14c-0.17,29.9 25.49,58.12 56.53,55.77c3.28,-0.25 6.27,-1.45 9.38,-2.54q11.14,-3.94 15.56,-15.22a1.84,1.82 -87.2 0 1 1.18,-1.08q2.02,-0.59 2.04,1.91q0.09,9.26 -0.04,18.52q-0.01,0.52 -0.53,0.6c-2.09,0.28 -4.22,0.39 -6.17,0.87c-8.34,2.04 -15.34,3.79 -24.89,4.47c-4.5,0.33 -8.84,-0.25 -13.32,-0.67c-9.23,-0.88 -17.58,-3.99 -25.13,-8.6c-28.82,-17.57 -35.57,-56.32 -19.22,-84.15c9.48,-16.14 28.06,-26.71 47.25,-28.22c4.18,-0.33 8.38,-0.92 12.45,-0.55q9.88,0.9 19.35,3.89c1.77,0.56 3.52,0.65 5.3,0.82a1.11,1.1 2.8 0 1 1.01,1.11l-0.05,19.24a0.74,0.74 0 0 1 -0.39,0.65c-1.05,0.56 -2.03,0.18 -2.46,-0.94c-2.38,-6.18 -4.46,-10.8 -11.2,-14.09z"
            id="svg_153" />
        <path fill="#000000"
            d="m647.68218,794.93839a1.07,1.07 0 0 0 -1.25,1.05q-0.09,22.77 -0.2,44.31c-0.02,4.25 1.02,10.48 5.8,12.11q0.42,0.15 0.55,0.57q0.3,0.93 0.09,1.88q-0.1,0.48 -0.59,0.48l-24.52,0.03q-0.57,0 -0.53,-0.57l0.16,-2.07q0.05,-0.64 0.69,-0.67l0.76,-0.03q0.56,-0.02 0.99,-0.37c4.12,-3.36 3.78,-9.42 3.78,-14.12q0.01,-44.62 -0.01,-89.24c0,-3.1 -1.74,-8.05 -5.5,-8.72q-0.6,-0.11 -0.73,-0.71q-0.22,-1.07 -0.08,-2.13q0.07,-0.5 0.57,-0.5q15.4,-0.18 30.77,-0.02c17.88,0.17 37.45,5.27 37.78,27.58c0.24,16.6 -9.87,26.8 -25.29,30.09a1.46,1.45 67.4 0 0 -0.91,2.22q14.82,22.71 29.99,45c3.29,4.84 6.79,9.94 12.66,11.11q0.52,0.11 0.71,0.6q0.31,0.8 0.2,1.68a0.82,0.81 -88.3 0 1 -0.76,0.72c-10.59,0.64 -19.45,-0.34 -25.94,-9.75q-11.89,-17.26 -32.56,-48.94a1.35,1.34 -11.5 0 0 -0.9,-0.59l-5.73,-1zm-1.47,-49.64l0,41.22a1.62,1.62 0 0 0 1.62,1.62l10.42,0a24.36,20.28 0 0 0 24.36,-20.28l0,-3.9a24.36,20.28 0 0 0 -24.36,-20.28l-10.42,0a1.62,1.62 0 0 0 -1.62,1.62z"
            id="svg_154" />
        <path fill="#000000"
            d="m804.54218,787.91839q1.21,0.01 1.22,-1.21q0.07,-18.78 0.04,-35.66c-0.01,-4.47 -0.55,-10.69 -5.66,-11.86a1.15,1.15 0 0 1 -0.85,-0.8q-0.31,-1.1 0.18,-1.69q0.34,-0.41 1.32,-0.43q11.01,-0.18 22.01,-0.05c1.57,0.02 2.67,0.83 2.15,2.45a0.87,0.87 0 0 1 -0.64,0.59c-4.12,0.93 -5.31,5.48 -5.32,9.04q-0.19,46.37 -0.21,92.75c0,3.46 1.16,9.97 5.52,11.36a1.21,1.19 2.7 0 1 0.81,0.88q0.27,1.18 -0.2,1.69q-0.31,0.32 -1.29,0.33q-11.66,0.06 -23.27,0.04q-0.82,0 -0.91,-0.82c-0.11,-1.08 0.22,-1.77 1.28,-2.2c3.94,-1.6 5.01,-6.45 5.03,-10.28q0.09,-21.94 0.03,-45.84q0,-1.15 -1.15,-1.15l-54.11,-0.03q-0.83,0 -0.83,0.82q-0.06,23.14 -0.18,44.45c-0.02,3.72 0.66,10.19 4.89,11.87c1.27,0.51 1.9,1.18 1.39,2.57a0.91,0.89 -79.6 0 1 -0.84,0.59q-11.77,0.05 -23.64,-0.13q-0.68,-0.02 -0.95,-0.31a1.48,1.48 0 0 1 0.46,-2.35c1.26,-0.58 2.64,-1 3.45,-2.26q2.28,-3.56 2.28,-7.23q0.11,-72.1 0.01,-94.75c-0.02,-4.02 -1.62,-7.52 -5.47,-9.22q-0.95,-0.42 -1.15,-1.01q-0.28,-0.83 0.46,-1.55a1.04,1.03 22.8 0 1 0.72,-0.29l23.86,-0.08q0.47,0 0.69,0.41q0.82,1.5 -0.35,2.23c-1.39,0.87 -3.02,1.48 -3.79,2.97q-1.79,3.46 -1.83,8.65q-0.14,18.09 0.02,36.7q0.01,1.13 1.13,0.95q2.61,-0.43 5.71,-0.43q24.44,0.05 47.98,0.29z"
            id="svg_155" />
        <path fill="#000000"
            d="m863.80218,744.08839l0.01,43.42a0.32,0.31 90 0 0 0.31,0.32q14.35,-0.01 28.69,-0.04c3.42,-0.01 7.5,-2.29 8.59,-5.84q0.41,-1.36 0.44,-1.4q2.85,-3.89 2.95,0.93q0.17,8.82 -0.05,18.57q-0.03,1.37 -0.16,1.71q-1.21,3.17 -2.34,-0.03c-1.89,-5.34 -6.09,-6.85 -11.75,-6.88q-12.72,-0.07 -25.41,-0.03q-1.26,0 -1.27,1.26l-0.01,51.45a0.42,0.41 90 0 0 0.41,0.42q18.8,-0.01 37.74,0.01c7.36,0.01 12.07,-6.94 13.32,-13.44a1.85,1.85 0 0 1 0.99,-1.31q1.47,-0.73 1.53,0.84q0.34,10.11 0.28,20.5a0.76,0.75 0 0 1 -0.76,0.75q-35.36,0.09 -71,0.2q-1.27,0.01 -1.8,-0.32a1.5,1.49 -40.4 0 1 0.22,-2.64c1.54,-0.65 2.95,-1.13 3.85,-2.66q2.21,-3.77 2.21,-7.58q0.04,-46 0.01,-92c0,-4.45 -1.34,-9.95 -6.25,-11.29a1.05,1.04 88.9 0 1 -0.72,-0.7q-0.38,-1.27 0.49,-1.79q0.45,-0.26 1.53,-0.27q33.35,-0.27 66.64,-0.02q1.17,0.01 1.16,1.18l-0.06,15.47a0.5,0.46 -33 0 1 -0.06,0.23q-1.27,2.53 -2.25,0.53c-2.96,-6.11 -4.37,-9.89 -12.22,-9.95q-23.63,-0.19 -34.76,-0.11q-0.5,0 -0.5,0.51z"
            id="svg_156" />
        <path fill="#000000"
            d="m956.17218,794.95839q-1.01,-0.15 -1.02,0.88q-0.01,23.31 0,44.46c0,4.64 0.67,10.48 5.67,12.07q0.46,0.14 0.62,0.6q0.31,0.84 0.15,1.74q-0.1,0.6 -0.72,0.6l-24.28,0.06q-0.47,0.01 -0.6,-0.44q-0.27,-0.86 -0.17,-1.79q0.07,-0.57 0.62,-0.74c4.43,-1.33 5.71,-6.51 5.72,-10.6q0.09,-45.13 0.21,-90.25c0.01,-4.07 -0.89,-11.03 -5.62,-12.18a1.42,1.42 0 0 1 -1.07,-1.19q-0.15,-1.08 0.29,-1.57q0.3,-0.33 1.28,-0.35q26.16,-0.43 33.31,0.01c13.93,0.86 30.14,4.75 33.67,20.79c2.21,10.06 0.06,22.25 -8.16,28.97q-2.39,1.95 -6.65,4.44c-3.1,1.8 -6.61,2.56 -10.06,3.63a1.24,1.24 0 0 0 -0.68,1.87q14.11,21.6 28.73,43.13c2.97,4.37 7.97,12.56 13.64,12.97a1.19,1.18 -2.8 0 1 1.08,0.97l0.18,1q0.2,1.11 -0.92,1.2c-11.98,1 -20.07,-1.2 -26.99,-11.52q-20.86,-31.13 -31.47,-47.32q-0.28,-0.42 -0.78,-0.5l-5.98,-0.94zm-1.16,-49.7l-0.22,41.24a1.59,1.59 0 0 0 1.58,1.6l10.53,0.06a24.48,20.59 0.3 0 0 24.59,-20.46l0.02,-3.24a24.48,20.59 0.3 0 0 -24.37,-20.72l-10.53,-0.06a1.59,1.59 0 0 0 -1.6,1.58z"
            id="svg_157" />
        <path fill="#000000"
            d="m1058.53218,794.87839a1.29,1.28 -79.9 0 0 -1.73,1.21q-0.06,24.63 0,47.46c0.01,3.33 1.85,7.72 5.46,8.82q0.51,0.15 0.68,0.67q0.27,0.87 0.04,1.76q-0.13,0.55 -0.7,0.55l-24.19,0q-0.57,0 -0.69,-0.56q-0.18,-0.84 -0.06,-1.68q0.08,-0.53 0.6,-0.67c4.87,-1.28 5.93,-7.82 5.92,-11.89q-0.15,-43.37 -0.09,-86.75c0.01,-4.96 0.43,-12.4 -5.7,-14.49a1.24,1.21 -1.4 0 1 -0.76,-0.71q-0.37,-0.9 0.02,-1.82q0.21,-0.52 0.78,-0.52q14.73,-0.18 29.45,-0.08c14.23,0.1 32.65,2.91 37.67,18.78c3.11,9.82 1.19,21.6 -6.01,29.56c-1.89,2.08 -4.85,3.75 -7.31,5.33c-3.69,2.37 -7.43,3.3 -11.55,4.33a0.61,0.61 0 0 0 -0.44,0.78q0.49,1.53 1.46,3q15.1,22.85 30.65,45.41c2.93,4.25 6.28,8.47 11.04,8.69q0.5,0.02 0.56,0.51l0.25,2.03q0.07,0.6 -0.53,0.64c-11.34,0.87 -19.9,-0.59 -26.68,-10.55q-16.39,-24.09 -32.3,-48.51a1.02,1.01 72.3 0 0 -0.86,-0.45q-2.56,0.05 -4.98,-0.85zm-1.89,-50.25l0.22,42.53a1.06,1.06 0 0 0 1.07,1.06l10.14,-0.05a25.12,20.73 -0.3 0 0 25.01,-20.87l-0.02,-3.2a25.12,20.73 -0.3 0 0 -25.23,-20.59l-10.14,0.05a1.06,1.06 0 0 0 -1.05,1.07z"
            id="svg_158" />
        <path fill="#000000"
            d="m1158.57218,847.68839a0.27,0.27 0 0 0 0.27,0.27q18.21,-0.05 36.47,0.06c9.46,0.05 12.73,-6.16 15.01,-14.2a1.16,1.16 0 0 1 1.85,-0.58q0.51,0.42 0.55,1.31q0.44,10.15 0.17,20.2a0.6,0.6 0 0 1 -0.6,0.59l-72.73,0.02q-0.63,0 -0.64,-0.63q-0.02,-0.96 0.33,-1.85q0.21,-0.53 0.77,-0.65c4.3,-0.99 5.53,-6.9 5.54,-10.61q0.04,-46.53 0,-93.07c-0.01,-3.94 -2.04,-7.99 -6.11,-9.39a0.91,0.89 4.2 0 1 -0.59,-0.67q-0.18,-0.85 -0.02,-1.71q0.12,-0.62 0.74,-0.62l67.42,-0.03q1.19,0 1.28,1.19q0.68,8.98 -0.02,14.74q-0.66,5.38 -2.78,0.39c-2.8,-6.56 -4.93,-8.61 -12.92,-8.71q-16.75,-0.22 -33.51,-0.18a0.5,0.49 -90 0 0 -0.49,0.5l0.03,42.97q0,0.77 0.77,0.77q14.27,0.06 28.94,-0.01q3.04,-0.01 5.8,-2.61c1.57,-1.46 2.43,-3.64 3.18,-5.66a1.08,1.08 0 0 1 1.9,-0.24q0.61,0.88 0.62,2.27q0.06,9.75 -0.28,19.5q-0.03,0.94 -0.64,1.87a0.94,0.94 0 0 1 -1.7,-0.27q-2.06,-7.79 -10.62,-7.84q-13.5,-0.07 -26.05,0.03q-1.94,0.01 -1.94,1.95l0,50.9z"
            id="svg_159" />
        <path fill="#000000"
            d="m1250.45218,794.86839q-0.9,-0.16 -0.9,0.75q-0.03,23.62 0,45.32c0,3.22 0.99,10.6 5.15,11.21q0.97,0.14 1.12,1.1l0.19,1.28q0.13,0.8 -0.68,0.8l-24.49,0.03q-0.47,0 -0.61,-0.46q-0.29,-0.98 0.02,-1.9q0.18,-0.5 0.69,-0.65c4.4,-1.23 5.6,-7.04 5.6,-10.8q0.02,-46.62 -0.01,-93.25c0,-3.37 -1.86,-7.87 -5.59,-9.02q-0.49,-0.15 -0.75,-0.59q-0.66,-1.16 0.05,-1.96q0.46,-0.52 1.5,-0.52q12.92,-0.07 25.82,-0.16c10.49,-0.06 21.12,0.91 29.97,6c11.18,6.44 13.77,19.44 10.72,31.25c-2.13,8.2 -6.82,12.44 -13.75,16.72c-3.38,2.1 -7,2.97 -10.74,4.03a1.3,1.3 0 0 0 -0.73,1.96q15.88,24.32 31.96,47.64c2.43,3.54 5.94,7.86 10.5,8.47q0.49,0.06 0.73,0.49q0.54,0.93 0.3,2.03q-0.12,0.56 -0.68,0.6c-12.57,0.96 -20.06,-1.17 -27.34,-11.9q-15.81,-23.32 -31.18,-46.95q-0.26,-0.39 -0.71,-0.47l-6.16,-1.05zm-0.97,-49.92l-0.22,41.8a1.36,1.36 0 0 0 1.35,1.37l10.44,0.06a24.68,20.59 0.3 0 0 24.79,-20.46l0.02,-3.34a24.68,20.59 0.3 0 0 -24.57,-20.72l-10.44,-0.06a1.36,1.36 0 0 0 -1.37,1.35z"
            id="svg_160" />
        <path fill="#000000"
            d="m688.39218,954.38839l-6.89,-0.08a1.1,1.09 11.3 0 0 -1.03,0.68c-1.69,4.03 -4.13,9.23 -3.64,13.56q0.07,0.58 -0.52,0.57l-4.18,-0.1a0.41,0.4 -69.8 0 1 -0.3,-0.66c1.99,-2.53 2.79,-4.94 3.92,-7.88q4.94,-12.79 9.17,-24.62q0.72,-2 1.46,-0.01q5.67,15.1 11.2,29.31q0.68,1.75 1.88,2.95a0.51,0.51 0 0 1 -0.36,0.87l-6.07,0.09a0.39,0.39 0 0 1 -0.38,-0.51c1.14,-3.64 -2.12,-10.22 -3.57,-13.71q-0.19,-0.46 -0.69,-0.46zm-6.8,-2.97a0.6,0.6 0 0 0 0.56,0.81l5.14,0.06a0.6,0.6 0 0 0 0.58,-0.79l-2.49,-7.3a0.6,0.6 0 0 0 -1.13,-0.01l-2.66,7.23z"
            id="svg_168" />
        <path fill="#000000"
            d="m609.18218,942.07839c-1.7,6.47 11.8,7.96 15.1,12.07c3.01,3.76 2.29,9.88 -1.52,12.91c-4.13,3.27 -11.4,2.51 -16.09,0.69q-0.5,-0.19 -0.6,-0.71q-0.39,-2.23 -0.25,-4.49q0.19,-3.14 1.39,-0.23c0.54,1.28 0.97,2.76 2.35,3.5c9.25,5.05 18.1,-6.71 8.72,-10.92c-5.27,-2.36 -13.24,-4.14 -13.18,-11.34c0.08,-9.51 11.18,-9.79 17.68,-7.78q0.45,0.14 0.55,0.6q0.5,2.25 0.38,3.02q-0.57,3.72 -1.88,0.19q-0.84,-2.26 -3.5,-2.52c-4.22,-0.41 -7.88,0.16 -9.15,5.01z"
            id="svg_169" />
        <path fill="#000000"
            d="m740.09218,940.93839c-1.26,-2.64 -2.94,-3.57 -5.93,-3.65c-18.85,-0.49 -19.75,25.77 -2.42,29.43c3.74,0.79 7.78,0.09 9.14,-3.82q0.84,-2.4 1.83,0.19q0.38,0.96 -0.09,3.86a1.44,1.41 -4.5 0 1 -0.97,1.12c-7.68,2.4 -15.73,2.24 -21.69,-3.92c-10.54,-10.91 -2.82,-28.87 12.1,-29.38q4.08,-0.13 9.01,1.16q0.55,0.15 0.56,0.71l0.12,5.64a0.35,0.35 0 0 1 -0.6,0.25q-0.61,-0.63 -1.06,-1.59z"
            id="svg_170" />
        <path fill="#000000"
            d="m1056.55218,952.08839a17.33,17.33 0 0 1 -17.33,17.33a17.33,17.33 0 0 1 -17.33,-17.33a17.33,17.33 0 0 1 17.33,-17.33a17.33,17.33 0 0 1 17.33,17.33zm-15.3227,14.65a14.75,13.13 82.1 0 0 10.9781,-16.4146a14.75,13.13 82.1 0 0 -15.0327,-12.8054a14.75,13.13 82.1 0 0 -10.9781,16.4146a14.75,13.13 82.1 0 0 15.0327,12.8054z"
            id="svg_171" />
        <path fill="#000000"
            d="m435.50218,937.33839a0.78,0.77 -1.1 0 0 -0.76,0.78l0.14,10.82a0.79,0.78 87.9 0 0 0.82,0.77l7.3,-0.31q0.57,-0.03 0.97,-0.45l0.87,-0.93q1.47,-1.57 1.47,0.57l0,4.91a0.55,0.55 0 0 1 -0.77,0.51q-1.1,-0.47 -1.58,-1.59q-0.28,-0.63 -0.97,-0.63l-7.61,-0.05a0.56,0.56 0 0 0 -0.57,0.56c-0.02,4.18 -0.96,12.33 1.24,15.87a0.5,0.5 0 0 1 -0.42,0.76l-5.63,0.07a0.42,0.41 5.2 0 1 -0.41,-0.48q0.1,-0.58 0.38,-1.03c1,-1.59 0.88,-3.23 0.89,-5.44q0.08,-10.8 -0.03,-21.6c-0.01,-1.7 -0.42,-2.97 -1.09,-4.45a0.62,0.62 0 0 1 0.57,-0.87l17.54,0.08q0.53,0.01 0.67,0.51q0.58,2.01 0.4,3.05q-0.45,2.62 -1.75,0.3c-0.47,-0.84 -1.51,-1.4 -2.56,-1.48q-4.7,-0.35 -9.11,-0.25z"
            id="svg_172" />
        <path fill="#000000"
            d="m485.58218,939.91839q-0.03,-1.89 -0.91,-3.9a0.69,0.68 78.5 0 1 0.63,-0.96l3.27,0.01a0.72,0.72 0 0 1 0.66,1.02l-0.97,2.15q-0.21,0.44 -0.21,0.93q0.01,9.57 -0.03,19.13c-0.03,5.21 -1.92,10.16 -7.71,10.91c-9.38,1.2 -13.47,-2.3 -13.6,-11.66q-0.11,-8.57 -0.15,-17.13c0,-1.64 -0.44,-2.91 -1.03,-4.38a0.73,0.73 0 0 1 0.81,-0.99q2.25,0.41 4.49,0.02a0.72,0.72 0 0 1 0.81,0.94c-0.4,1.22 -1.07,2.17 -1.09,3.46q-0.17,9.78 0.11,19.55q0.23,8.19 8.38,8.12c5.75,-0.05 6.77,-5.61 6.74,-10.09q-0.06,-8.56 -0.2,-17.13z"
            id="svg_173" />
        <path fill="#000000"
            d="m513.83218,966.37839l10.55,-0.08a1.6,1.57 22.1 0 0 1.12,-0.46q0.94,-0.96 1.2,-2.18q0.56,-2.65 1.41,-0.08q0.67,2.01 -0.08,4.97q-0.14,0.53 -0.68,0.48q-9.54,-0.84 -19.08,0.11a0.47,0.46 -80 0 1 -0.46,-0.66c0.68,-1.46 1.26,-2.64 1.28,-4.33q0.1,-11.86 0.02,-23.71c-0.02,-1.73 -0.46,-2.95 -1.14,-4.45a0.62,0.62 0 0 1 0.57,-0.88l5.06,0.06a0.53,0.52 10.9 0 1 0.49,0.72c-0.57,1.43 -1.04,2.66 -1.04,4.25q-0.01,12.55 0.01,25.48a0.76,0.76 0 0 0 0.77,0.76z"
            id="svg_174" />
        <path fill="#000000"
            d="m549.85218,966.16839q5.1,0.45 10.22,0.26c2.8,-0.11 2.73,-2.21 3.87,-3.94q0.87,-1.3 0.82,0.27l-0.17,5.65q-0.01,0.39 -0.39,0.39l-19.71,0.06a0.44,0.44 0 0 1 -0.38,-0.67q1.49,-2.46 1.47,-5.39q-0.09,-11.04 -0.12,-22.08c0,-1.88 -0.59,-3.15 -1.22,-4.89q-0.25,-0.69 0.48,-0.68l5.37,0.01a0.44,0.44 0 0 1 0.42,0.58c-0.49,1.43 -1.17,2.69 -1.18,4.24q-0.09,12.78 -0.05,25.56q0,0.58 0.57,0.63z"
            id="svg_175" />
        <path fill="#000000"
            d="m654.11218,937.38839a1.19,1.19 0 0 0 -1.25,1.19q-0.03,12.51 -0.02,24.47q0.01,2.93 1.38,5.26a0.44,0.44 0 0 1 -0.38,0.66l-5.82,0.03a0.43,0.42 -73.9 0 1 -0.36,-0.66q1.06,-1.62 1.11,-3.55q0.38,-12.82 0.25,-26.22q-0.02,-1.24 -1.25,-1.19l-4.83,0.17a0.9,0.9 0 0 0 -0.77,0.49l-1.03,1.97q-0.96,1.84 -1.67,-0.11q-0.66,-1.78 0.4,-4.29q0.17,-0.4 0.6,-0.4l21.22,-0.01a0.65,0.65 0 0 1 0.64,0.53q0.45,2.24 0.14,4.53a0.54,0.54 0 0 1 -0.92,0.32q-1.05,-1 -1.43,-2.43a0.68,0.68 0 0 0 -0.63,-0.5l-5.38,-0.26z"
            id="svg_176" />
        <path fill="#000000"
            d="m765.50218,947.80839q0.13,1.49 1.19,0.43c3.42,-3.47 9.75,-8.31 11.28,-12.84a0.64,0.63 -78.2 0 1 0.65,-0.43l3.6,0.26a0.58,0.58 0 0 1 0.36,0.99l-11.66,11.23a1.31,1.31 0 0 0 -0.19,1.65q5.13,7.88 10.51,15.96c0.89,1.32 2.08,2.05 3.36,2.88a0.55,0.55 0 0 1 -0.2,1q-4.49,0.84 -7.11,-2.82q-4.53,-6.29 -8.56,-12.9q-1.58,-2.58 -3.1,0.02a1.78,1.7 -30.5 0 0 -0.21,0.74c-0.14,4.27 -0.89,10.64 1.36,14.2a0.56,0.56 0 0 1 -0.48,0.86l-5.97,0a0.32,0.32 0 0 1 -0.28,-0.47q1.28,-2.54 1.31,-4.27q0.28,-12.25 -0.15,-24.49q-0.06,-1.8 -0.72,-3.61q-0.39,-1.09 0.77,-1.07l4.78,0.05a0.71,0.7 15 0 1 0.61,1.05c-1.93,3.42 -1.46,7.92 -1.15,11.58z"
            id="svg_177" />
        <path fill="#000000"
            d="m843.25218,936.38839c12.68,4.53 14.85,22.56 3.28,29.83c-5.22,3.29 -12.47,2.22 -18.3,2.97a0.53,0.53 0 0 1 -0.56,-0.73c0.78,-1.82 1.32,-3.32 1.33,-5.38q0.05,-11 -0.02,-21.99c-0.01,-1.88 -0.47,-3.33 -1.21,-4.97a0.77,0.76 79.8 0 1 0.75,-1.08c4.73,0.32 10.24,-0.26 14.73,1.35zm-10.84,2.42l0.46,26.76a1.2,1.2 0 0 0 1.23,1.18l0.54,-0.01a15.7,14.34 -1 0 0 15.44,-14.61l-0.01,-0.48a15.7,14.34 -1 0 0 -15.94,-14.07l-0.54,0.01a1.2,1.2 0 0 0 -1.18,1.22z"
            id="svg_178" />
        <path fill="#000000"
            d="m877.39218,966.41839l10.59,0.11q0.64,0 1.04,-0.5l1.96,-2.5q1.07,-1.36 1.06,0.37l-0.02,4.34a0.81,0.81 0 0 1 -0.87,0.81q-9.67,-0.77 -19.33,0.06a0.45,0.44 -78.2 0 1 -0.43,-0.66c1.47,-2.66 1.38,-4.78 1.39,-7.75q0.05,-10.45 -0.25,-20.89q-0.06,-1.92 -0.95,-3.9a0.53,0.53 0 0 1 0.48,-0.75l18.01,0.07q0.4,0 0.48,0.39q0.47,2.42 0.04,4.87a0.19,0.18 -58.1 0 1 -0.33,0.08q-2.17,-2.89 -3.95,-2.97q-4.55,-0.18 -9.02,-0.1a0.73,0.73 0 0 0 -0.71,0.74l0.12,10.87a0.65,0.64 88.3 0 0 0.67,0.64l7.32,-0.29q0.53,-0.02 0.96,-0.33l1.96,-1.45a0.41,0.41 0 0 1 0.65,0.33l0.03,5.32a0.57,0.57 0 0 1 -1,0.38c-2.48,-2.81 -6.61,-1.81 -9.85,-1.77a0.85,0.85 0 0 0 -0.84,0.85l0.01,12.84a0.79,0.79 0 0 0 0.78,0.79z"
            id="svg_179" />
        <path fill="#000000"
            d="m922.31218,958.69839q3.33,-8.84 6.84,-18.71q0.77,-2.18 0.45,-4.41a0.49,0.48 -3.5 0 1 0.49,-0.55l3.2,0.08a0.87,0.87 0 0 1 0.58,1.49q-1.52,1.49 -2.29,3.68q-4.69,13.29 -10.05,27.83q-0.8,2.18 -1.6,-0.01q-5.12,-14.04 -11.18,-29.19q-0.57,-1.4 -1.43,-2.28a0.84,0.84 0 0 1 0.58,-1.42l4.97,-0.12a0.55,0.55 0 0 1 0.56,0.55c-0.02,1.76 -0.1,3.18 0.51,4.85q3.29,8.94 6.76,18.21q0.8,2.14 1.61,0z"
            id="svg_180" />
        <path fill="#000000"
            d="m956.40218,952.37839l-0.09,12.84a1.18,1.17 90 0 0 1.17,1.18l10.58,0.01a1.22,1.21 13.7 0 0 1.08,-0.65l1.19,-2.24a0.69,0.69 0 0 1 1.3,0.33l-0.03,4.67q0,0.55 -0.55,0.5q-9.74,-0.87 -19.47,0.12a0.44,0.43 -80.2 0 1 -0.43,-0.62q1.68,-3.47 1.6,-7.47q-0.18,-10 -0.2,-20q0,-2.45 -1.17,-4.88a0.71,0.71 0 0 1 0.65,-1.01l17.61,0.07a0.63,0.63 0 0 1 0.62,0.62l0.07,3.88a0.58,0.58 0 0 1 -1.07,0.32c-0.9,-1.43 -1.72,-2.45 -3.58,-2.5q-4.2,-0.09 -8.25,-0.25a1.06,1.06 0 0 0 -1.11,1.07l0.1,10.3a0.99,0.99 0 0 0 1.01,0.98l7.07,-0.19a1.12,1.1 -66.9 0 0 0.73,-0.3l1.83,-1.7a0.53,0.53 0 0 1 0.9,0.38l0.07,5.16q0.04,2.81 -1.64,0.56l-0.99,-1.32q-0.4,-0.54 -1.07,-0.53l-7.36,0.1a0.58,0.58 0 0 0 -0.57,0.57z"
            id="svg_181" />
        <path fill="#000000"
            d="m994.76218,966.44839l10.16,-0.14a2.18,2.18 0 0 0 2.09,-1.65q0.28,-1.14 0.95,-2.09q0.77,-1.12 0.8,0.24l0.1,5.64a0.61,0.61 0 0 1 -0.66,0.62q-9.57,-0.83 -19.14,0.06a0.56,0.56 0 0 1 -0.55,-0.81q1.34,-2.58 1.33,-5.52q-0.04,-10.5 0.14,-21q0.05,-2.87 -1.34,-5.63a0.67,0.67 0 0 1 0.6,-0.98l4.89,0a0.61,0.61 0 0 1 0.56,0.86q-0.79,1.8 -0.81,3.75q-0.13,12.23 -0.21,25.56a1.08,1.08 0 0 0 1.09,1.09z"
            id="svg_182" />
        <path fill="#000000"
            d="m1078.76218,953.59839c-0.2,4.1 -0.79,11.03 1.24,14.66a0.49,0.49 0 0 1 -0.42,0.73l-5.53,0.09a0.59,0.59 0 0 1 -0.54,-0.84c0.73,-1.54 1.29,-2.88 1.3,-4.67q0.03,-11.09 0.03,-22.17c-0.01,-1.99 -0.53,-3.5 -1.26,-5.26a0.79,0.78 79.7 0 1 0.75,-1.09c4.83,0.23 10.94,-0.51 15.04,2.67q2.62,2.03 2.55,5.48c-0.15,7.45 -6.43,9.2 -12.58,9.79a0.65,0.64 89 0 0 -0.58,0.61zm-0.24,-15.22l0.22,11.46a0.86,0.86 0 0 0 0.88,0.84l0.14,0a8.38,6.42 -1.1 0 0 8.25,-6.58l0,-0.34a8.38,6.42 -1.1 0 0 -8.51,-6.26l-0.14,0a0.86,0.86 0 0 0 -0.84,0.88z"
            id="svg_183" />
        <path fill="#000000"
            d="m1115.69218,937.31839q-0.97,0.03 -0.96,1.01l0.13,10.34q0.01,1.04 1.06,1l6.93,-0.29q0.56,-0.02 0.95,-0.41l1.36,-1.35a0.64,0.64 0 0 1 1.09,0.45l0.05,5.4a0.55,0.55 0 0 1 -0.73,0.53q-0.96,-0.32 -1.42,-1.21q-0.25,-0.49 -0.78,-0.68c-2.58,-0.92 -5.42,-0.3 -8.01,-0.32a0.56,0.56 0 0 0 -0.56,0.56l-0.05,13.14a0.99,0.99 0 0 0 1,0.99l10.2,-0.09a2.04,2.02 12.7 0 0 1.81,-1.13l1.23,-2.51a0.36,0.36 0 0 1 0.68,0.08q0.66,2.82 0.17,5.66q-0.11,0.61 -0.72,0.55q-9.53,-0.91 -19.07,0.09a0.58,0.57 -77.5 0 1 -0.55,-0.87c0.84,-1.37 1.27,-2.65 1.28,-4.35q0.13,-11.85 0,-23.71c-0.02,-1.57 -0.48,-2.72 -1.11,-4.1a0.67,0.66 -12.2 0 1 0.61,-0.94l17.57,0.03a0.69,0.68 88.2 0 1 0.68,0.65l0.22,3.72a0.5,0.5 0 0 1 -0.65,0.51c-0.28,-0.09 -0.67,-0.34 -0.86,-0.62c-1.92,-2.81 -8.53,-2.23 -11.55,-2.13z"
            id="svg_184" />
        <path fill="#000000"
            d="m1152.04218,954.01839c-0.34,3.46 -0.8,10.72 1.16,14.36a0.43,0.43 0 0 1 -0.37,0.63l-5.56,0.05a0.48,0.48 0 0 1 -0.45,-0.65c0.66,-1.74 1.21,-3.11 1.22,-5q0.04,-11.61 -0.01,-23.21c-0.01,-1.64 -0.8,-2.76 -1.12,-4.38q-0.12,-0.6 0.49,-0.61c7.8,-0.2 19.94,-1.5 17.99,10.31c-0.58,3.54 -2.69,4.56 -5.37,5.8a1.48,1.48 0 0 0 -0.61,2.16q4.05,6.11 8.09,12.09c0.6,0.9 1.58,1.36 2.16,2.01q1.51,1.69 -0.75,1.49q-4.57,-0.4 -6.97,-4.17q-3.82,-6 -7.33,-11.49q-2.18,-3.41 -2.57,0.61zm-0.29,-15.43l0.24,10.28a1.15,1.15 0 0 0 1.17,1.12l0.83,-0.02a7.72,5.31 -1.3 0 0 7.6,-5.48l-0.04,-1.96a7.72,5.31 -1.3 0 0 -7.84,-5.13l-0.83,0.02a1.15,1.15 0 0 0 -1.13,1.17z"
            id="svg_185" />
        <path fill="#fff"
            d="m681.59218,951.41839l2.66,-7.23a0.6,0.6 0 0 1 1.13,0.01l2.49,7.3a0.6,0.6 0 0 1 -0.58,0.79l-5.14,-0.06a0.6,0.6 0 0 1 -0.56,-0.81z"
            id="svg_190" />
    </g>

</svg>