<!-- Generator: Adobe Illustrator 24.0.3, SVG Export Plug-In  -->
<svg
  version="1.1"
  xmlns="http://www.w3.org/2000/svg"
  xmlns:xlink="http://www.w3.org/1999/xlink"
  x="0px"
  y="0px"
  width="413.38px"
  height="462.63px"
  viewBox="0 0 413.38 462.63"
  style="enable-background: new 0 0 413.38 462.63"
  xml:space="preserve"
>
  <style type="text/css">
    .st0 {
      fill: #083042;
    }
    .st1 {
      fill: #3ddb85;
    }
    .st2 {
      fill: #3ddc84;
    }
    .st3 {
      fill: #4285f4;
    }
    .st4 {
      fill: #d6f0ff;
    }
    .st5 {
      fill: #041619;
    }
    .st6 {
      fill: #37bf6e;
    }
    .st7 {
      fill: #3870b2;
    }
    .st8 {
      opacity: 0.1;
      enable-background: new;
    }
  </style>
  <defs></defs>
  <g id="g86_1_" transform="translate(60.000773,35.375275)">
    <path
      id="path6_1_"
      class="st0"
      d="M64.54,244.19c-0.85-1.43-1.41-3.03-1.65-4.71C63.13,241.16,63.69,242.76,64.54,244.19z"
    />
    <path
      id="path8_1_"
      class="st0"
      d="M64.4,150.92L64.4,150.92c-0.8,1.9-1.33,3.94-1.54,6.07C63.07,154.85,63.6,152.82,64.4,150.92z"
    />
    <path
      id="path10_1_"
      class="st0"
      d="M66.59,246.82c0.8,0.78,1.7,1.47,2.7,2.03l68.19,38.51l-68.19-38.51
		C68.29,248.29,67.38,247.6,66.59,246.82z"
    />
    <path
      id="path12_1_"
      class="st0"
      d="M147.97,336.05c-0.18,0.01-0.36,0.02-0.55,0.02c-4.98,0.04-9.99-1.21-14.47-3.74L31.22,274.88
		c-5.97-3.36-9.68-9.66-9.75-16.51l0-116.83c-0.05-4.99,0.94-9.79,2.96-14.03L-55.1,82.95c-3.35,7-4.98,14.94-4.9,23.19l0,192.85
		c0.11,11.3,6.23,21.7,16.09,27.25L124,421.08c7.41,4.18,15.66,6.24,23.89,6.17l0-0.14C148.08,415.09,148.02,366.58,147.97,336.05
		L147.97,336.05z"
    />
    <path
      id="path14_1_"
      class="st1"
      d="M227.93,148.78L227.93,148.78c-0.19-0.32-0.39-0.63-0.59-0.94c-0.46-0.68-0.97-1.34-1.51-1.97
		c0.54,0.63,1.05,1.28,1.51,1.97C227.55,148.15,227.74,148.47,227.93,148.78z"
    />
    <path
      id="path16_1_"
      class="st1"
      d="M65.33,148.93c0.42-0.73,0.88-1.44,1.4-2.11C66.21,147.49,65.75,148.2,65.33,148.93z"
    />
    <path
      id="path18_1_"
      class="st1"
      d="M144.06,102.07c0.46-0.04,0.92-0.06,1.38-0.07C144.97,102.01,144.51,102.03,144.06,102.07z"
    />
    <path
      id="path20_1_"
      class="st2"
      d="M24.44,127.49c2.18-4.56,5.56-8.45,10.17-11.17l95.76-56.49c8.91-5.26,19.95-5.37,28.96-0.28
		l96.81,54.68c4.32,2.44,8.1,5.89,10.86,9.96c0.01,0.02,0.02,0.03,0.03,0.05l78.25-46.73c-4.57-6.73-10.8-12.42-17.93-16.45
		l-159.8-90.26c-14.88-8.4-33.09-8.23-47.8,0.46L-38.31,64.51c-7.6,4.49-13.19,10.91-16.79,18.44l79.53,44.56
		C24.44,127.5,24.44,127.49,24.44,127.49L24.44,127.49z"
    />
    <path
      id="path22_1_"
      class="st1"
      d="M140.08,102.82c0.2-0.06,0.41-0.12,0.62-0.18C140.49,102.7,140.28,102.76,140.08,102.82z"
    />
    <path
      id="path24_1_"
      class="st1"
      d="M64.75,150.06c0.18-0.38,0.38-0.76,0.59-1.12C65.12,149.3,64.93,149.67,64.75,150.06
		c-0.13,0.28-0.23,0.58-0.35,0.86h0C64.52,150.63,64.61,150.33,64.75,150.06z"
    />
    <path
      id="path26_1_"
      class="st3"
      d="M345.29,77.51l-78.25,46.73c3,4.42,4.82,9.56,4.87,14.92l0,111.18
		c0.09,10.35-5.33,19.96-14.24,25.22l-95.76,56.5c-4.31,2.55-9.11,3.86-13.94,3.99c0.06,30.52,0.12,79.04-0.07,91.06l0,0.14
		c8.27-0.07,16.53-2.26,23.91-6.62l158.07-93.26c14.7-8.67,23.66-24.54,23.51-41.62l0-183.52
		C353.29,93.33,350.26,84.82,345.29,77.51L345.29,77.51z"
    />
    <path
      id="path28_1_"
      class="st3"
      d="M229.72,238.42c-0.06,0.2-0.13,0.4-0.2,0.59C229.59,238.82,229.66,238.62,229.72,238.42z"
    />
    <path
      id="path30_1_"
      class="st3"
      d="M228.7,150.16c-0.24-0.47-0.5-0.93-0.77-1.38v0C228.2,149.23,228.46,149.69,228.7,150.16z"
    />
    <path
      id="path32_1_"
      class="st3"
      d="M156.89,287.19l64.19-37.87c0.37-0.22,0.74-0.45,1.09-0.69c-0.35,0.24-0.72,0.47-1.09,0.69
		L156.89,287.19z"
    />
    <path
      id="path34_1_"
      class="st3"
      d="M228.85,240.68c-0.23,0.5-0.47,0.99-0.74,1.47C228.38,241.67,228.62,241.17,228.85,240.68z"
    />
    <path
      id="path36_1_"
      class="st3"
      d="M224.18,247.04c0.95-0.85,1.8-1.79,2.56-2.79C225.98,245.25,225.13,246.19,224.18,247.04z"
    />
    <path
      id="path38_1_"
      class="st3"
      d="M228.11,242.14c-0.41,0.73-0.87,1.43-1.37,2.1C227.24,243.57,227.7,242.87,228.11,242.14z"
    />
    <path
      id="path40_1_"
      class="st4"
      d="M64.4,150.92c-0.8,1.9-1.33,3.94-1.54,6.07c-0.08,0.82-0.11,1.65-0.11,2.48l0,78.31
		c0.01,0.57,0.05,1.14,0.13,1.7c0.24,1.68,0.81,3.27,1.65,4.71c0.56,0.96,1.25,1.84,2.05,2.62c0.8,0.78,1.7,1.47,2.7,2.03
		l68.19,38.51c3.01,1.7,6.36,2.53,9.7,2.51c0.24,0,0.48-0.02,0.73-0.03c3.11-0.14,6.2-1.02,8.98-2.66l64.19-37.87
		c0.37-0.22,0.74-0.45,1.09-0.69c0.71-0.48,1.38-1.01,2.01-1.58c0.95-0.85,1.8-1.79,2.56-2.79c0.5-0.67,0.96-1.37,1.37-2.1
		c0.27-0.48,0.51-0.97,0.74-1.47c0.25-0.54,0.47-1.1,0.67-1.66c0.07-0.2,0.14-0.39,0.2-0.59c0.6-1.92,0.92-3.94,0.9-6.01l0-74.53
		c-0.01-1.35-0.19-2.69-0.52-3.98c-0.22-0.86-0.5-1.71-0.85-2.53c-0.17-0.41-0.36-0.82-0.56-1.22c-0.24-0.47-0.5-0.93-0.77-1.38
		c-0.19-0.32-0.39-0.63-0.59-0.94c-0.46-0.68-0.97-1.34-1.51-1.97c-1.63-1.88-3.6-3.49-5.77-4.71l-64.89-36.65
		c-1.13-0.64-2.31-1.16-3.52-1.55c-1.61-0.53-3.28-0.84-4.95-0.93c-0.42-0.02-0.84-0.03-1.26-0.03c-0.46,0-0.92,0.03-1.38,0.07
		c-1.13,0.09-2.26,0.28-3.36,0.57c-0.21,0.05-0.41,0.11-0.62,0.18c-1.49,0.45-2.95,1.07-4.33,1.88l-64.19,37.87
		c-1.93,1.14-3.54,2.59-4.83,4.26c-0.52,0.67-0.98,1.37-1.4,2.11c-0.21,0.37-0.4,0.74-0.59,1.12
		C64.61,150.33,64.52,150.63,64.4,150.92L64.4,150.92z"
    />
    <path
      id="path42_1_"
      class="st0"
      d="M147.9,289.84c-0.24,0.01-0.48,0.03-0.73,0.03c-3.34,0.03-6.69-0.81-9.7-2.51l-68.19-38.51
		c-1-0.56-1.91-1.25-2.7-2.03c-0.8-0.78-1.48-1.67-2.05-2.62c-0.85-1.43-1.41-3.03-1.65-4.71c-0.08-0.56-0.12-1.13-0.13-1.7l0-78.31
		c-0.01-0.84,0.03-1.67,0.11-2.48c0.21-2.13,0.74-4.17,1.54-6.07l-18.41-11.34l-21.55-12.07c-2.02,4.24-3.01,9.04-2.96,14.03
		l0,116.83c0.07,6.85,3.77,13.15,9.75,16.51l101.72,57.46c4.49,2.53,9.49,3.78,14.47,3.74c0.18,0,0.36-0.02,0.55-0.02
		c-0.03-14.89-0.06-25.5-0.06-25.5L147.9,289.84z"
    />
    <path
      id="path44_1_"
      class="st5"
      d="M147.9,289.84c-0.24,0.01-0.48,0.03-0.73,0.03c-3.34,0.03-6.69-0.81-9.7-2.51l-68.19-38.51
		c-1-0.56-1.91-1.25-2.7-2.03c-0.8-0.78-1.48-1.67-2.05-2.62c-0.85-1.43-1.41-3.03-1.65-4.71c-0.08-0.56-0.12-1.13-0.13-1.7l0-78.31
		c-0.01-0.84,0.03-1.67,0.11-2.48c0.21-2.13,0.74-4.17,1.54-6.07l-18.41-11.34l-21.55-12.07c-2.02,4.24-3.01,9.04-2.96,14.03
		l0,116.83c0.07,6.85,3.77,13.15,9.75,16.51l101.72,57.46c4.49,2.53,9.49,3.78,14.47,3.74c0.18,0,0.36-0.02,0.55-0.02
		c-0.03-14.89-0.06-25.5-0.06-25.5L147.9,289.84z"
    />
    <path
      id="path46_1_"
      class="st1"
      d="M256.14,114.23l-96.81-54.68c-9.01-5.09-20.05-4.99-28.96,0.28l-95.76,56.49
		c-4.61,2.72-7.99,6.61-10.17,11.17c0,0.01-0.01,0.01-0.01,0.02l21.55,12.07l18.41,11.34c0.12-0.29,0.22-0.58,0.35-0.86
		c0.18-0.38,0.38-0.76,0.59-1.12c0.42-0.73,0.88-1.44,1.4-2.11c1.29-1.67,2.9-3.12,4.83-4.26l64.19-37.87
		c1.38-0.81,2.83-1.43,4.33-1.88c0.2-0.06,0.41-0.12,0.62-0.18c1.11-0.29,2.23-0.48,3.36-0.57c0.46-0.04,0.92-0.06,1.38-0.07
		c0.42,0,0.84,0.01,1.26,0.03c1.67,0.09,3.34,0.4,4.95,0.93c1.21,0.4,2.39,0.91,3.52,1.55l64.89,36.65
		c2.17,1.23,4.14,2.83,5.77,4.71c0.54,0.63,1.05,1.28,1.51,1.97c0.21,0.31,0.4,0.62,0.59,0.94l16.55-11.07l22.55-13.47
		c-0.01-0.02-0.02-0.03-0.03-0.05C264.24,120.11,260.46,116.67,256.14,114.23L256.14,114.23z"
    />
    <path
      id="path48_1_"
      class="st6"
      d="M256.14,114.23l-96.81-54.68c-9.01-5.09-20.05-4.99-28.96,0.28l-95.76,56.49
		c-4.61,2.72-7.99,6.61-10.17,11.17c0,0.01-0.01,0.01-0.01,0.02l21.55,12.07l18.41,11.34c0.12-0.29,0.22-0.58,0.35-0.86
		c0.18-0.38,0.38-0.76,0.59-1.12c0.42-0.73,0.88-1.44,1.4-2.11c1.29-1.67,2.9-3.12,4.83-4.26l64.19-37.87
		c1.38-0.81,2.83-1.43,4.33-1.88c0.2-0.06,0.41-0.12,0.62-0.18c1.11-0.29,2.23-0.48,3.36-0.57c0.46-0.04,0.92-0.06,1.38-0.07
		c0.42,0,0.84,0.01,1.26,0.03c1.67,0.09,3.34,0.4,4.95,0.93c1.21,0.4,2.39,0.91,3.52,1.55l64.89,36.65
		c2.17,1.23,4.14,2.83,5.77,4.71c0.54,0.63,1.05,1.28,1.51,1.97c0.21,0.31,0.4,0.62,0.59,0.94l16.55-11.07l22.55-13.47
		c-0.01-0.02-0.02-0.03-0.03-0.05C264.24,120.11,260.46,116.67,256.14,114.23L256.14,114.23z"
    />
    <path
      id="path50_1_"
      class="st3"
      d="M227.93,148.78c0.27,0.45,0.53,0.91,0.77,1.38c0.2,0.4,0.39,0.8,0.56,1.22
		c0.34,0.82,0.63,1.67,0.85,2.53c0.33,1.29,0.51,2.63,0.52,3.98l0,74.53c0.02,2.07-0.3,4.09-0.9,6.01c-0.06,0.2-0.13,0.4-0.2,0.59
		c-0.2,0.57-0.42,1.12-0.67,1.66c-0.23,0.5-0.47,0.99-0.74,1.47c-0.41,0.73-0.87,1.43-1.37,2.1c-0.76,1.01-1.61,1.94-2.56,2.79
		c-0.63,0.57-1.3,1.09-2.01,1.58c-0.35,0.24-0.72,0.47-1.09,0.69l-64.19,37.87c-2.78,1.64-5.87,2.52-8.98,2.66l0,20.7
		c0,0,0.03,10.61,0.06,25.5c4.83-0.13,9.63-1.44,13.94-3.99l95.76-56.5c8.91-5.26,14.33-14.86,14.24-25.22l0-111.18
		c-0.05-5.37-1.88-10.51-4.87-14.92l-22.55,13.47L227.93,148.78z"
    />
    <path
      id="path52_1_"
      class="st7"
      d="M227.93,148.78c0.27,0.45,0.53,0.91,0.77,1.38c0.2,0.4,0.39,0.8,0.56,1.22
		c0.34,0.82,0.63,1.67,0.85,2.53c0.33,1.29,0.51,2.63,0.52,3.98l0,74.53c0.02,2.07-0.3,4.09-0.9,6.01c-0.06,0.2-0.13,0.4-0.2,0.59
		c-0.2,0.57-0.42,1.12-0.67,1.66c-0.23,0.5-0.47,0.99-0.74,1.47c-0.41,0.73-0.87,1.43-1.37,2.1c-0.76,1.01-1.61,1.94-2.56,2.79
		c-0.63,0.57-1.3,1.09-2.01,1.58c-0.35,0.24-0.72,0.47-1.09,0.69l-64.19,37.87c-2.78,1.64-5.87,2.52-8.98,2.66l0,20.7
		c0,0,0.03,10.61,0.06,25.5c4.83-0.13,9.63-1.44,13.94-3.99l95.76-56.5c8.91-5.26,14.33-14.86,14.24-25.22l0-111.18
		c-0.05-5.37-1.88-10.51-4.87-14.92l-22.55,13.47L227.93,148.78z"
    />
    <path
      id="path54_1_"
      class="st4"
      d="M140.08,102.82c-1.49,0.45-2.95,1.07-4.33,1.88l-64.19,37.87l64.19-37.87
		C137.13,103.89,138.58,103.27,140.08,102.82L140.08,102.82z"
    />
    <path
      id="path56_1_"
      class="st8"
      d="M140.08,102.82c-1.49,0.45-2.95,1.07-4.33,1.88l-64.19,37.87l64.19-37.87
		C137.13,103.89,138.58,103.27,140.08,102.82L140.08,102.82z"
    />
    <path
      id="path58_1_"
      class="st4"
      d="M225.82,145.88c-1.63-1.88-3.6-3.49-5.77-4.71l-64.89-36.65l64.89,36.65
		C222.23,142.39,224.19,144,225.82,145.88z"
    />
    <path
      id="path60_1_"
      class="st8"
      d="M225.82,145.88c-1.63-1.88-3.6-3.49-5.77-4.71l-64.89-36.65l64.89,36.65
		C222.23,142.39,224.19,144,225.82,145.88z"
    />
    <path
      id="path62_1_"
      class="st4"
      d="M145.43,102.01c0.42,0,0.84,0.01,1.26,0.03C146.27,102.01,145.85,102,145.43,102.01z"
    />
    <path
      id="path64_1_"
      class="st8"
      d="M145.43,102.01c0.42,0,0.84,0.01,1.26,0.03C146.27,102.01,145.85,102,145.43,102.01z"
    />
    <path
      id="path66_1_"
      class="st4"
      d="M140.69,102.65c1.11-0.29,2.23-0.48,3.36-0.57C142.92,102.16,141.8,102.36,140.69,102.65z"
    />
    <path
      id="path68_1_"
      class="st8"
      d="M140.69,102.65c1.11-0.29,2.23-0.48,3.36-0.57C142.92,102.16,141.8,102.36,140.69,102.65z"
    />
    <path
      id="path70_1_"
      class="st4"
      d="M146.69,102.04c1.67,0.09,3.34,0.4,4.95,0.93C150.03,102.44,148.36,102.13,146.69,102.04z"
    />
    <path
      id="path72_1_"
      class="st8"
      d="M146.69,102.04c1.67,0.09,3.34,0.4,4.95,0.93C150.03,102.44,148.36,102.13,146.69,102.04z"
    />
    <path
      id="path74_1_"
      class="st4"
      d="M229.52,239.01c-0.2,0.57-0.42,1.12-0.67,1.66C229.1,240.13,229.33,239.58,229.52,239.01z"
    />
    <path
      id="path76_1_"
      class="st8"
      d="M229.52,239.01c-0.2,0.57-0.42,1.12-0.67,1.66C229.1,240.13,229.33,239.58,229.52,239.01z"
    />
    <path
      id="path78_1_"
      class="st4"
      d="M229.26,151.37c0.34,0.82,0.63,1.67,0.85,2.53C229.88,153.04,229.6,152.2,229.26,151.37z"
    />
    <path
      id="path80_1_"
      class="st8"
      d="M229.26,151.37c0.34,0.82,0.63,1.67,0.85,2.53C229.88,153.04,229.6,152.2,229.26,151.37z"
    />
    <path
      id="path82_1_"
      class="st4"
      d="M229.72,238.42c0.6-1.92,0.92-3.94,0.9-6.01l0-74.53l0,74.53
		C230.64,234.48,230.33,236.5,229.72,238.42L229.72,238.42z"
    />
    <path
      id="path84_1_"
      class="st8"
      d="M229.72,238.42c0.6-1.92,0.92-3.94,0.9-6.01l0-74.53l0,74.53
		C230.64,234.48,230.33,236.5,229.72,238.42L229.72,238.42z"
    />
  </g>
</svg>
